<svg width="1920" height="1080" viewBox="0 0 1920 1080" fill="none" xmlns="http://www.w3.org/2000/svg">
<g clip-path="url(#clip0_1011_3)">
<rect width="1920" height="1080" fill="url(#paint0_linear_1011_3)"/>
<path opacity="0.3" fill-rule="evenodd" clip-rule="evenodd" d="M183.588 23.0692C188.425 15.9427 189.22 5.50165 189.225 0H200.384C200.379 5.82749 199.669 19.247 192.822 29.336C189.262 34.5802 184.012 39.0253 176.528 40.9805C169.155 42.9064 160.205 42.2634 149.422 38.5343C127.63 30.9981 107.629 31.6768 93.3905 37.4419C79.2109 43.183 71.1591 53.6495 71.1591 66.2069C71.1591 73.1788 72.4929 78.9751 75.2324 83.8937C77.9656 88.8011 82.304 93.2051 88.8983 97.0788C102.326 104.967 124.494 110.312 159.027 113.059L158.142 124.183C123.315 121.412 98.981 115.944 83.2461 106.701C75.2591 102.009 69.3511 96.2679 65.4834 89.3236C61.6219 82.3905 60 74.6281 60 66.2069C60 47.9782 71.9599 34.0797 89.2026 27.0984C106.386 20.141 129.218 19.7399 153.069 27.988C162.507 31.2516 169.115 31.3832 173.707 30.1837C178.187 29.0134 181.305 26.4328 183.588 23.0692Z" fill="#C5BFF7"/>
<circle cx="157.716" cy="118.306" r="41.6935" fill="#FAB12B"/>
<circle cx="157.717" cy="118.306" r="34.4084" stroke="#7867F6" stroke-width="4"/>
<circle cx="157.717" cy="118.306" r="16.4425" fill="#6A5ADA"/>
<mask id="mask0_1011_3" style="mask-type:alpha" maskUnits="userSpaceOnUse" x="0" y="580" width="440" height="500">
<path d="M0 580H439.655V1080H0V580Z" fill="url(#paint1_linear_1011_3)"/>
</mask>
<g mask="url(#mask0_1011_3)">
<path d="M28.6878 604.09C32.2737 594.652 42.8247 589.873 52.2327 593.41C61.6715 596.996 66.45 607.547 62.9131 616.955C59.3273 626.394 48.7762 631.172 39.3682 627.635C29.9112 624.129 25.1327 613.578 28.6878 604.09Z" stroke="#FAB12B" stroke-width="8" stroke-miterlimit="10"/>
<path d="M106.74 727.825L99.2373 769.497C98.9156 771.274 100.676 772.769 102.413 772.157L142.269 757.804C144.006 757.192 144.406 754.887 142.991 753.722L110.638 726.403C109.223 725.239 107.111 726.018 106.74 727.825Z" stroke="#22D382" stroke-width="8" stroke-miterlimit="10"/>
<path d="M-16.823 735.203C-4.96631 703.733 -20.8328 668.661 -52.3035 656.804" stroke="#F91264" stroke-width="8" stroke-miterlimit="10"/>
<path d="M134.569 638.959L108.459 648.171" stroke="#F91264" stroke-width="8" stroke-miterlimit="10"/>
<path d="M108.732 1001.38C114.713 985.509 132.445 977.453 148.316 983.433C164.186 989.413 172.243 1007.15 166.262 1023.02C160.282 1038.89 142.55 1046.94 126.679 1040.96C110.76 1035.01 102.703 1017.28 108.732 1001.38Z" stroke="#F91264" stroke-width="8" stroke-miterlimit="10"/>
<path d="M-0.988929 966.39L16.7055 991.622C18.8565 994.72 19.0189 998.793 17.1585 1002.15L1.77861 1029.54C-1.17754 1034.75 -8.42644 1035.19 -11.8345 1030.42L-29.5289 1005.19C-31.6799 1002.09 -31.8424 998.019 -29.9819 994.66L-14.602 967.274C-11.6459 962.064 -4.34787 961.587 -0.988929 966.39Z" stroke="#25CAE0" stroke-width="8" stroke-miterlimit="10"/>
<path d="M-117.603 785.287L-32.3895 792.48C-24.5115 793.145 -18.6535 800.075 -19.3183 807.953L-26.4802 893.215C-27.145 901.093 -34.0749 906.952 -41.9529 906.287L-127.216 899.125C-135.094 898.46 -140.952 891.53 -140.287 883.652L-133.125 798.389C-132.442 790.431 -125.481 784.622 -117.603 785.287Z" stroke="#22D382" stroke-width="8" stroke-miterlimit="10"/>
<path d="M190.704 860.099L198.552 816.361C199.936 808.648 207.279 803.557 214.993 804.941L258.731 812.789C266.444 814.173 271.535 821.517 270.151 829.23L262.303 872.968C260.919 880.681 253.575 885.772 245.862 884.388L202.124 876.54C194.411 875.156 189.289 867.763 190.704 860.099Z" stroke="#25CAE0" stroke-width="8" stroke-miterlimit="10"/>
<path d="M266.699 981.43L404.084 987.341C418.702 987.949 430.04 1000.33 429.402 1014.9L423.442 1152.32C422.835 1166.94 410.449 1178.28 395.88 1177.64L258.464 1171.68C243.846 1171.07 232.508 1158.68 233.146 1144.12L239.057 1006.73C239.744 992.13 252.081 980.823 266.699 981.43Z" stroke="#FAB12B" stroke-width="8" stroke-miterlimit="10"/>
<path d="M154.859 837.027L160.889 832.897C161.938 832.17 163.395 832.418 164.153 833.517L168.283 839.547C169.01 840.596 168.761 842.053 167.663 842.811L161.633 846.94C160.584 847.668 159.127 847.419 158.369 846.321L154.239 840.29C153.53 839.162 153.81 837.754 154.859 837.027Z" fill="#25CAE0"/>
<path d="M242.763 948.003L250.333 942.838C251.677 941.926 253.484 942.297 254.365 943.591L259.53 951.162C260.443 952.505 260.072 954.312 258.777 955.194L251.207 960.359C249.864 961.271 248.056 960.9 247.175 959.606L242.01 952.035C241.098 950.692 241.468 948.885 242.763 948.003Z" fill="#FAB12B"/>
<path d="M67.875 849.357L94.4728 877.757C104.271 888.236 103.76 904.641 93.3119 914.488L85.4393 921.897" stroke="#FAB12B" stroke-width="8" stroke-miterlimit="10"/>
<path d="M36.856 692.729L56.3716 699.501C63.5717 702.028 67.4104 709.884 64.8826 717.084L63.0143 722.501" stroke="#25CAE0" stroke-width="8" stroke-miterlimit="10"/>
<path d="M276.711 1039.55L331.865 946.457" stroke="#25CAE0" stroke-width="8" stroke-miterlimit="10"/>
</g>
<mask id="mask1_1011_3" style="mask-type:alpha" maskUnits="userSpaceOnUse" x="1537" y="0" width="383" height="500">
<rect x="1537" width="382.812" height="500" fill="#C4C4C4"/>
</mask>
<g mask="url(#mask1_1011_3)">
<path d="M1793.69 123.014C1810.51 60.2458 1773.26 -4.27219 1710.49 -21.0909C1647.72 -37.9096 1583.21 -0.660117 1566.39 62.1082C1549.57 124.876 1586.82 189.395 1649.59 206.213C1712.35 223.032 1776.87 185.782 1793.69 123.014Z" stroke="#25CAE0" stroke-width="8" stroke-miterlimit="10"/>
<path d="M1827.25 298.367L1852.46 286.357C1855.55 284.878 1859.22 285.363 1861.94 287.553L1884.1 305.45C1888.31 308.845 1887.62 315.428 1882.82 317.717L1857.6 329.727C1854.52 331.206 1850.84 330.721 1848.12 328.531L1825.96 310.634C1821.75 307.239 1822.44 300.655 1827.25 298.367Z" stroke="#22D382" stroke-width="8" stroke-miterlimit="10"/>
<path d="M1852.58 426.397C1861.6 404.935 1886.29 394.863 1907.76 403.882C1929.22 412.901 1939.29 437.595 1930.27 459.058C1921.25 480.521 1896.56 490.592 1875.1 481.573C1853.68 472.527 1843.56 447.86 1852.58 426.397Z" stroke="#FAB12B" stroke-width="8" stroke-miterlimit="10"/>
<path d="M1871.73 -19.4878L1948.66 -10.1029C1955.77 -9.23546 1960.84 -2.76225 1959.98 4.34985L1950.62 81.3247C1949.75 88.4368 1943.28 93.5085 1936.17 92.6411L1859.19 83.2825C1852.08 82.415 1847.01 75.9418 1847.87 68.8297L1857.23 -8.14516C1858.12 -15.329 1864.62 -20.3552 1871.73 -19.4878Z" stroke="#22D382" stroke-width="8" stroke-miterlimit="10"/>
<path d="M1752.27 162.725L1775.82 169.995C1776.87 170.356 1777.5 171.447 1777.14 172.504L1769.87 196.051C1769.51 197.108 1768.42 197.738 1767.36 197.378L1743.82 190.107C1742.76 189.747 1742.13 188.656 1742.49 187.598L1749.76 164.052C1750.07 163.021 1751.24 162.41 1752.27 162.725Z" stroke="#F91264" stroke-width="8" stroke-miterlimit="10"/>
<path d="M1793.67 356.932L1799.27 353.395C1800.25 352.772 1801.56 353.046 1802.21 354.066L1805.74 359.667C1806.37 360.641 1806.09 361.952 1805.07 362.602L1799.47 366.139C1798.5 366.762 1797.19 366.488 1796.54 365.468L1793 359.867C1792.42 358.866 1792.7 357.555 1793.67 356.932Z" fill="#25CAE0"/>
<path d="M1763.79 249.178L1890.02 228.822" stroke="#F91264" stroke-width="8" stroke-miterlimit="10"/>
<path d="M1698.5 301.976L1715.94 308.766C1722.38 311.297 1725.59 318.541 1723.06 324.977L1721.19 329.819" stroke="#25CAE0" stroke-width="8" stroke-miterlimit="10"/>
<path d="M1543.75 43.4062C1555 47.3435 1550.75 59.5071 1562 63.4444C1573.25 67.3817 1577.5 55.2181 1588.75 59.1554C1600 63.0927 1595.75 75.2563 1607 79.1936C1618.25 83.1309 1622.5 70.9673 1633.75 74.9046C1645 78.8419 1640.75 91.0055 1652 94.9428C1663.25 98.8801 1667.5 86.7165 1678.75 90.6538" stroke="#FAB12B" stroke-width="8" stroke-miterlimit="10"/>
<path d="M1898.61 46.8172L1886.69 138.795" stroke="#FAB12B" stroke-width="8" stroke-miterlimit="10"/>
</g>
<g opacity="0.6">
<ellipse cx="6.26516" cy="11.092" rx="6.26516" ry="11.092" transform="matrix(0.837768 0.546026 -0.455339 0.890318 1590.98 925.702)" fill="#B0A7FF"/>
<ellipse cx="6.11618" cy="11.3206" rx="6.11618" ry="11.3206" transform="matrix(0.957169 -0.289528 0.230941 0.972968 1532.4 923.542)" fill="#B0A7FF"/>
<ellipse cx="6.6552" cy="10.4419" rx="6.6552" ry="10.4419" transform="matrix(0.455339 0.890318 -0.837768 0.546026 1622.62 964.472)" fill="#B0A7FF"/>
<ellipse cx="6.46312" cy="10.7719" rx="6.46312" ry="10.7719" transform="matrix(0.663083 -0.748545 0.663083 0.748545 1493 966.167)" fill="#B0A7FF"/>
<path d="M1519.26 1016.93L1507.65 1080H1558.66H1609.67L1600.07 1022.06C1614.72 1010.65 1623.81 990.699 1618.26 978.156C1613.81 968.121 1604.28 966.372 1600.07 966.753C1602.77 961.621 1605.12 948.85 1593 938.815C1580.88 928.78 1569.43 940.335 1565.22 947.367C1563.2 940.335 1555.53 927.526 1540.98 932.543C1526.44 937.56 1525.83 952.499 1527.34 959.34C1514.42 954.779 1506.13 965.422 1503.61 971.314C1494.31 991.839 1510.17 1010.27 1519.26 1016.93Z" fill="white"/>
<ellipse cx="6.46312" cy="7.54031" rx="6.46312" ry="7.54031" transform="matrix(0.663083 -0.748545 0.663083 0.748545 1516.65 982.269)" fill="#6356C0"/>
<ellipse cx="6.11618" cy="7.92442" rx="6.11618" ry="7.92442" transform="matrix(0.957169 -0.289528 0.230941 0.972968 1539.56 950.55)" fill="#6356C0"/>
<ellipse cx="6.26516" cy="7.7644" rx="6.26516" ry="7.7644" transform="matrix(0.837768 0.546026 -0.455339 0.890318 1579.17 950.718)" fill="#6356C0"/>
<path d="M1573.81 983.288C1568.15 977.359 1563.2 977.017 1560.68 977.017C1558.49 977.017 1552.8 978.271 1547.55 983.288C1540.98 989.56 1535.2 997.542 1541.49 1006.66C1545.81 1012.94 1554.62 1013.51 1557.65 1011.23C1558.15 1010.85 1559.47 1010.09 1560.68 1010.09C1561.49 1010.09 1562.7 1010.85 1563.2 1011.23C1566.74 1012.94 1575.43 1013.51 1579.87 1006.66C1585.43 998.112 1580.88 990.7 1573.81 983.288Z" fill="#6356C0"/>
<path d="M1575.83 1034.03C1565.73 1038.02 1559.16 1038.02 1549.06 1035.17" stroke="#6356C0" stroke-width="5" stroke-linecap="round"/>
<ellipse cx="6.6552" cy="7.30935" rx="6.6552" ry="7.30935" transform="matrix(0.455339 0.890318 -0.837768 0.546026 1601.34 977.721)" fill="#6356C0"/>
<g opacity="0.21">
<mask id="mask2_1011_3" style="mask-type:alpha" maskUnits="userSpaceOnUse" x="1500" y="931" width="120" height="149">
<path d="M1519.26 1016.93L1507.65 1080H1609.67L1600.07 1022.06C1614.72 1010.65 1623.81 990.699 1618.26 978.156C1613.81 968.121 1604.28 966.372 1600.07 966.753C1602.77 961.621 1605.12 948.85 1593 938.815C1580.88 928.78 1569.43 940.335 1565.22 947.367C1563.2 940.335 1555.53 927.526 1540.98 932.543C1526.44 937.56 1525.83 952.499 1527.34 959.34C1514.42 954.779 1506.13 965.422 1503.61 971.314C1494.31 991.839 1510.17 1010.27 1519.26 1016.93Z" fill="white"/>
</mask>
<g mask="url(#mask2_1011_3)">
<path d="M1554.62 1078.5C1540.07 1076.68 1521.28 1062.16 1513.71 1055.13C1500.91 1066.72 1483 1092.19 1513.71 1101.31C1552.09 1112.71 1572.8 1080.79 1554.62 1078.5Z" fill="#968AF7"/>
<path d="M1583.91 1064.25C1584.72 1052.85 1601.08 1048.09 1609.16 1047.14V1072.23C1600.41 1074.32 1583.1 1075.65 1583.91 1064.25Z" fill="#968AF7"/>
</g>
</g>
<path d="M1507.65 1080L1519.26 1016.93C1510.17 1010.27 1494.31 991.839 1503.61 971.314C1506.13 965.422 1514.42 954.779 1527.34 959.34C1525.83 952.499 1526.44 937.56 1540.98 932.543C1555.53 927.526 1563.2 940.335 1565.22 947.367C1569.43 940.335 1580.88 928.78 1593 938.815C1605.12 948.85 1602.77 961.621 1600.07 966.753C1604.28 966.372 1613.81 968.121 1618.26 978.156C1623.81 990.699 1614.72 1010.65 1600.07 1022.06L1609.67 1080" stroke="#6356C0" stroke-width="4"/>
</g>
</g>
<defs>
<linearGradient id="paint0_linear_1011_3" x1="1540.59" y1="-4.29338e-05" x2="934.32" y2="1211.89" gradientUnits="userSpaceOnUse">
<stop stop-color="#6C5BE7"/>
<stop offset="1" stop-color="#6559BC"/>
</linearGradient>
<linearGradient id="paint1_linear_1011_3" x1="352.776" y1="580" x2="2.06019" y2="926.748" gradientUnits="userSpaceOnUse">
<stop stop-color="#6C5BE7"/>
<stop offset="1" stop-color="#6559BC"/>
</linearGradient>
<clipPath id="clip0_1011_3">
<rect width="1920" height="1080" fill="white"/>
</clipPath>
</defs>
</svg>
