<?xml version="1.0" encoding="UTF-8"?>
<svg xmlns="http://www.w3.org/2000/svg" xmlns:xlink="http://www.w3.org/1999/xlink" width="512pt" height="512pt" viewBox="0 0 512 512" version="1.1">
<defs>
<filter id="alpha" filterUnits="objectBoundingBox" x="0%" y="0%" width="100%" height="100%">
  <feColorMatrix type="matrix" in="SourceGraphic" values="0 0 0 0 1 0 0 0 0 1 0 0 0 0 1 0 0 0 1 0"/>
</filter>
<mask id="mask0">
  <g filter="url(#alpha)">
<rect x="0" y="0" width="512" height="512" style="fill:rgb(0%,0%,0%);fill-opacity:0.4;stroke:none;"/>
  </g>
</mask>
<clipPath id="clip1">
  <rect x="0" y="0" width="512" height="512"/>
</clipPath>
<g id="surface5" clip-path="url(#clip1)">
<path style=" stroke:none;fill-rule:nonzero;fill:rgb(33.333333%,29.019608%,63.137255%);fill-opacity:1;" d="M 234.191406 421.601562 C 218.976562 423.945312 203.34375 422.660156 188.59375 417.742188 L 188.125 417.585938 C 185.507812 416.714844 182.683594 418.15625 181.855469 420.785156 L 173.054688 448.644531 C 168.503906 463.054688 148.363281 463.707031 142.886719 449.625 L 135.09375 429.585938 C 133.769531 426.1875 128.957031 426.1875 127.636719 429.585938 L 123.488281 440.25 L 123.363281 440 L 128.511719 419.417969 C 133.832031 398.128906 158.667969 388.203125 178.214844 398.179688 C 199.644531 409.117188 225.460938 420 243.363281 420 Z M 234.191406 421.601562 "/>
<path style=" stroke:none;fill-rule:evenodd;fill:rgb(33.333333%,29.019608%,63.137255%);fill-opacity:1;" d="M 11.367188 186.398438 C 19.328125 194.625 32.488281 200 47.371094 200 C 62.25 200 75.40625 194.628906 83.371094 186.40625 L 83.371094 162.40625 C 75.40625 170.628906 62.25 176 47.371094 176 C 32.488281 176 19.328125 170.625 11.367188 162.398438 Z M 11.367188 146.398438 C 19.328125 154.625 32.488281 160 47.371094 160 C 62.25 160 75.40625 154.628906 83.371094 146.40625 L 83.371094 122.40625 C 75.40625 130.628906 62.25 136 47.371094 136 C 32.488281 136 19.328125 130.625 11.367188 122.398438 Z M 11.367188 106.402344 C 19.328125 114.628906 32.488281 120 47.371094 120 C 62.25 120 75.40625 114.628906 83.371094 106.402344 L 83.371094 82.402344 C 75.40625 90.628906 62.25 96 47.371094 96 C 32.488281 96 19.328125 90.628906 11.367188 82.402344 Z M 11.367188 106.402344 "/>
<path style=" stroke:none;fill-rule:nonzero;fill:rgb(33.333333%,29.019608%,63.137255%);fill-opacity:1;" d="M 272.113281 66.6875 L 278.929688 82.023438 C 281.363281 87.496094 278.8125 93.894531 273.285156 96.199219 L 248.097656 106.695312 C 242.835938 108.886719 237.328125 104.144531 238.710938 98.617188 C 241.753906 86.433594 248.054688 75.308594 256.933594 66.429688 L 259.09375 64.269531 C 263.082031 60.285156 269.824219 61.535156 272.113281 66.6875 Z M 272.113281 66.6875 "/>
<path style=" stroke:none;fill-rule:nonzero;fill:rgb(33.333333%,29.019608%,63.137255%);fill-opacity:1;" d="M 422.617188 74.6875 L 415.800781 90.023438 C 413.367188 95.496094 415.914062 101.894531 421.445312 104.199219 L 446.632812 114.695312 C 451.890625 116.886719 457.402344 112.144531 456.019531 106.617188 C 452.972656 94.433594 446.675781 83.308594 437.792969 74.429688 L 435.632812 72.269531 C 431.648438 68.285156 424.90625 69.535156 422.617188 74.6875 Z M 422.617188 74.6875 "/>
<path style=" stroke:none;fill-rule:nonzero;fill:rgb(33.333333%,29.019608%,63.137255%);fill-opacity:1;" d="M 107.363281 216 L 131.363281 216 L 131.363281 284 C 131.363281 290.628906 125.992188 296 119.363281 296 C 112.738281 296 107.363281 290.628906 107.363281 284 Z M 107.363281 216 "/>
<path style=" stroke:none;fill-rule:nonzero;fill:rgb(33.333333%,29.019608%,63.137255%);fill-opacity:1;" d="M 147.363281 216 L 171.363281 216 L 171.363281 284 C 171.363281 290.628906 165.992188 296 159.363281 296 C 152.738281 296 147.363281 290.628906 147.363281 284 Z M 147.363281 216 "/>
<path style=" stroke:none;fill-rule:nonzero;fill:rgb(33.333333%,29.019608%,63.137255%);fill-opacity:1;" d="M 379.363281 312 C 379.363281 312 315.363281 320 271.363281 296 C 271.363281 296 282.097656 367.03125 362.773438 367.992188 Z M 379.363281 312 "/>
<path style=" stroke:none;fill-rule:nonzero;fill:rgb(33.333333%,29.019608%,63.137255%);fill-opacity:1;" d="M 354.3125 396.398438 L 338.929688 448.226562 C 333.832031 462.5625 313.484375 462.359375 308.675781 447.925781 L 303.707031 433.03125 C 303.023438 430.976562 301.121094 430.097656 299.363281 430.332031 L 301.363281 417.164062 C 301.363281 417.164062 331.363281 419.996094 354.3125 396.398438 Z M 354.3125 396.398438 "/>
</g>
</defs>
<g id="surface1">
<path style=" stroke:none;fill-rule:nonzero;fill:rgb(98.039216%,69.411765%,16.862745%);fill-opacity:1;" d="M 509.683594 347.101562 L 430.171875 50.285156 C 425.519531 32.917969 414.164062 18.101562 398.59375 9.105469 C 383.023438 0.105469 364.515625 -2.34375 347.140625 2.296875 L 50.292969 81.878906 C 32.921875 86.527344 18.105469 97.886719 9.105469 113.453125 C 0.105469 129.023438 -2.34375 147.527344 2.296875 164.898438 L 81.808594 461.714844 C 86.460938 479.082031 97.816406 493.898438 113.390625 502.894531 C 128.957031 511.894531 147.464844 514.34375 164.839844 509.703125 L 461.6875 430.199219 C 470.296875 427.898438 478.371094 423.921875 485.445312 418.5 C 492.515625 413.078125 498.453125 406.3125 502.910156 398.59375 C 507.367188 390.878906 510.257812 382.355469 511.421875 373.519531 C 512.582031 364.683594 511.992188 355.707031 509.683594 347.101562 Z M 509.683594 347.101562 "/>
<path style="fill-rule:nonzero;fill:rgb(100%,100%,100%);fill-opacity:1;stroke-width:1.4;stroke-linecap:butt;stroke-linejoin:miter;stroke:rgb(33.333333%,29.019608%,63.137255%);stroke-opacity:1;stroke-miterlimit:4;" d="M 20.130981 12.098145 C 20.421021 8.200928 22.265259 3.75 24.689575 3.75 C 26.616943 3.75 27.443481 6.195557 27.79834 8.293945 C 29.246704 8.008667 30.737549 7.875 32.189575 7.875 C 33.885498 7.875 35.644043 8.217041 37.30188 8.846558 C 37.639526 6.711548 38.457642 4.125 40.439575 4.125 C 43.615723 4.125 45.689575 11.625 44.790894 15.789551 C 44.790894 15.789551 45.314575 16.875 45.314575 18.75 C 45.314575 22.875 41.939575 28.5 35.564575 29.25 L 31.77356 42.02124 C 31.295654 43.365234 29.388428 43.346558 28.937256 41.993042 L 28.471802 40.59668 C 28.353149 40.240723 27.843018 40.260498 27.752197 40.624512 L 27.432495 41.903687 C 27.063721 43.37915 24.842651 43.393433 24.336182 42.019409 L 23.320679 39.262573 C 23.314087 39.244995 23.306396 39.228149 23.297974 39.212402 C 21.468018 39.787354 19.501831 39.770874 17.679565 39.16333 L 17.635986 39.148682 C 17.390625 39.067017 17.125854 39.202148 17.047852 39.448608 L 16.223145 42.060425 C 15.796509 43.411377 13.907959 43.472534 13.394531 42.152344 L 12.66394 40.273682 C 12.540161 39.955078 12.088989 39.955078 11.96521 40.273682 L 11.174561 42.306885 C 10.667725 43.609497 8.812134 43.57251 8.357666 42.250854 L 4.814575 34.125 C 3.564697 32.875122 1.064575 28.875 1.064575 22.875 C 1.064575 22.858521 1.064575 22.842407 1.064575 22.825928 C 1.064575 22.811279 1.064575 22.796631 1.064575 22.781982 C 1.064575 22.712036 1.064941 22.642822 1.065308 22.575073 C 1.064941 22.550171 1.064575 22.524902 1.064575 22.5 L 1.064575 7.5 C 1.064575 5.635986 2.575562 4.125 4.439575 4.125 C 6.303589 4.125 7.814575 5.635986 7.814575 7.5 L 7.814575 17.25 C 7.814575 19.5 8.564575 20.25 10.064575 20.25 L 16.439575 20.25 C 17.189575 20.25 17.566406 19.546143 17.564575 18.770874 L 17.564575 18.75 C 17.564575 15.940796 18.550415 13.751953 20.130981 12.098145 Z M 20.130981 12.098145 " transform="matrix(10.666667,0,0,10.666667,0,0)"/>
<path style=" stroke:none;fill-rule:nonzero;fill:rgb(33.333333%,29.019608%,63.137255%);fill-opacity:1;" d="M 343.355469 208 C 331.355469 208 291.355469 184 291.355469 172 C 291.355469 152 323.355469 144 343.355469 144 C 363.355469 144 395.355469 152 395.355469 172 C 395.355469 184 355.355469 208 343.355469 208 Z M 343.355469 208 "/>
<use xlink:href="#surface5" mask="url(#mask0)"/>
<path style=" stroke:none;fill-rule:nonzero;fill:rgb(33.333333%,29.019608%,63.137255%);fill-opacity:1;" d="M 343.355469 220 C 347.355469 236 359.355469 240 371.355469 240 C 367.355469 244 359.355469 251.992188 343.355469 252 C 327.355469 252.007812 319.355469 244 315.355469 240 C 327.355469 240 339.355469 236 343.355469 220 Z M 343.355469 220 "/>
<path style="fill:none;stroke-width:1.4;stroke-linecap:round;stroke-linejoin:miter;stroke:rgb(33.333333%,29.019608%,63.137255%);stroke-opacity:1;stroke-miterlimit:4;" d="M 36.286011 29.257324 C 34.857422 29.400146 30.571655 30.285645 26.000244 27.714478 " transform="matrix(10.666667,0,0,10.666667,0,0)"/>
</g>
</svg>
