<?xml version="1.0" encoding="UTF-8"?>
<svg xmlns="http://www.w3.org/2000/svg" xmlns:xlink="http://www.w3.org/1999/xlink" width="122pt" height="122pt" viewBox="0 0 122 122" version="1.1">
<g id="surface1">
<path style="fill:none;stroke-width:0.6;stroke-linecap:butt;stroke-linejoin:miter;stroke:rgb(98.039216%,69.411765%,16.862745%);stroke-opacity:1;stroke-miterlimit:4;" d="M 15.637807 10.924693 C 15.699795 11.155738 15.715676 11.396516 15.684426 11.633197 C 15.653176 11.870389 15.57582 12.098873 15.455943 12.306352 C 15.336578 12.51332 15.177254 12.694672 14.987705 12.840164 C 14.797643 12.985656 14.581455 13.092213 14.35041 13.153689 L 14.349898 13.154201 L 5.07377 15.63832 C 4.607582 15.762807 4.111168 15.697234 3.693648 15.455943 C 3.275615 15.214139 2.971311 14.817111 2.846311 14.350922 L 0.36168 5.07582 C 0.36168 5.07582 0.36168 5.07582 0.36168 5.075307 C 0.237193 4.609631 0.302766 4.113217 0.544057 3.695697 C 0.785861 3.278176 1.182889 2.973361 1.649078 2.848361 L 10.925717 0.36168 C 11.391906 0.237193 11.88832 0.302766 12.30584 0.544057 C 12.723361 0.785861 13.028176 1.182889 13.153176 1.649078 Z M 15.637807 10.924693 " transform="matrix(7.625,0,0,7.625,0,0)"/>
<path style="fill-rule:nonzero;fill:rgb(100%,100%,100%);fill-opacity:1;stroke-width:1;stroke-linecap:butt;stroke-linejoin:miter;stroke:rgb(38.823529%,33.72549%,75.294118%);stroke-opacity:1;stroke-miterlimit:4;" d="M 9.674693 3.965676 C 9.612193 3.951844 9.545082 3.9375 9.474385 3.923156 C 9.068135 3.840676 8.51998 3.753586 8 3.753586 C 7.329406 3.753586 6.78125 3.838627 6.397029 3.925205 C 6.370389 3.931352 6.344262 3.9375 6.31916 3.943648 C 6.228996 3.631148 6.105533 3.296107 5.940574 2.996414 C 5.689549 2.539447 5.245902 2 4.543033 2 C 3.994877 2 3.563012 2.328381 3.254098 2.712602 C 2.940574 3.101947 2.695184 3.616291 2.515881 4.158811 C 2.177766 5.182889 2.033299 6.436475 2.201332 7.411373 C 2.178279 7.477971 2.151639 7.563012 2.125 7.665471 C 2.060963 7.916496 2 8.272541 2 8.717213 C 2 10.513832 2.786885 11.853996 3.946721 12.731557 C 5.091189 13.597336 6.577869 14 8 14 C 9.422131 14 10.909324 13.597336 12.053279 12.731557 C 13.213115 11.853996 14 10.513832 14 8.717213 C 14 8.272541 13.939037 7.916496 13.875 7.665471 C 13.848361 7.563012 13.821721 7.477971 13.798668 7.411373 C 13.966701 6.436475 13.822746 5.182889 13.484119 4.158811 C 13.304816 3.616291 13.059426 3.101947 12.745902 2.712602 C 12.436988 2.328381 12.005123 2 11.456967 2 C 10.754098 2 10.310451 2.539447 10.059426 2.996414 C 9.890881 3.303279 9.765369 3.647029 9.674693 3.965676 Z M 9.674693 3.965676 " transform="matrix(7.625,0,0,7.625,0,0)"/>
<path style="fill:none;stroke-width:0.6;stroke-linecap:round;stroke-linejoin:miter;stroke:rgb(38.823529%,33.72549%,75.294118%);stroke-opacity:1;stroke-miterlimit:4;" d="M 5.014344 4.891393 C 5.014344 4.891393 6.742828 4.253586 8 4.253586 C 9.257172 4.253586 10.985656 4.891393 10.985656 4.891393 " transform="matrix(7.625,0,0,7.625,0,0)"/>
<path style=" stroke:none;fill-rule:nonzero;fill:rgb(38.823529%,33.72549%,75.294118%);fill-opacity:1;" d="M 61 71.332031 C 56.855469 71.332031 43.027344 62.214844 43.027344 57.65625 C 43.027344 50.058594 54.089844 47.019531 61 47.019531 C 67.914062 47.019531 78.976562 50.058594 78.976562 57.65625 C 78.976562 62.214844 65.148438 71.332031 61 71.332031 Z M 61 71.332031 "/>
<path style=" stroke:none;fill-rule:nonzero;fill:rgb(38.823529%,33.72549%,75.294118%);fill-opacity:1;" d="M 61 73.761719 C 62.539062 79.839844 67.160156 81.359375 71.785156 81.359375 C 70.242188 82.878906 67.160156 85.914062 61 85.917969 C 54.835938 85.921875 51.757812 82.878906 50.214844 81.359375 C 54.835938 81.359375 59.460938 79.839844 61 73.761719 Z M 61 73.761719 "/>
</g>
</svg>
