<svg width="14" height="15" viewBox="0 0 14 15" fill="none" xmlns="http://www.w3.org/2000/svg">
<path d="M7 0.272705C3.14025 0.272705 0 3.41295 0 7.27271C0 11.1325 3.14025 14.2727 7 14.2727C10.8598 14.2727 14 11.1325 14 7.27271C14 3.41295 10.8597 0.272705 7 0.272705ZM7.87499 11.6477H6.12501V9.89771H7.87499V11.6477ZM8.74999 7.63501L7.87499 8.51V9.02269H6.12501V8.1477C6.12501 7.91571 6.21728 7.69312 6.38135 7.52905L7.51269 6.39771C7.74296 6.16744 7.87499 5.84828 7.87499 5.52272C7.87499 5.04036 7.48236 4.64773 7 4.64773C6.51764 4.64773 6.12501 5.04036 6.12501 5.52272V6.39771H4.37502V5.52272C4.37502 4.07521 5.55249 2.89771 7.00003 2.89771C8.44756 2.89771 9.62503 4.07519 9.62503 5.52272C9.62501 6.32081 9.31438 7.07105 8.74999 7.63501Z" fill="white"/>
</svg>
