<svg width="12" height="14" viewBox="0 0 12 14" fill="none" xmlns="http://www.w3.org/2000/svg">
<path fill-rule="evenodd" clip-rule="evenodd" d="M9 0H3V2H9V0ZM0 2C0 1.44772 0.447715 1 1 1H2V3H10V1H11C11.5523 1 12 1.44772 12 2V13C12 13.5523 11.5523 14 11 14H1C0.447715 14 0 13.5523 0 13V2ZM5 5.3C5 5.13431 5.13431 5 5.3 5H6.7C6.86569 5 7 5.13431 7 5.3V7.5H9.2C9.36569 7.5 9.5 7.63431 9.5 7.8V9.2C9.5 9.36569 9.36569 9.5 9.2 9.5H7V11.7C7 11.8657 6.86569 12 6.7 12H5.3C5.13431 12 5 11.8657 5 11.7V9.5H2.8C2.63431 9.5 2.5 9.36569 2.5 9.2V7.8C2.5 7.63431 2.63431 7.5 2.8 7.5H5V5.3Z" fill="white"/>
</svg>
