<svg width="14" height="14" viewBox="0 0 14 14" fill="none" xmlns="http://www.w3.org/2000/svg">
<path fill-rule="evenodd" clip-rule="evenodd" d="M2 0H7V4H11V6H5.41431L5 5.58569C4.625 5.21069 4.11621 5 3.58569 5H2V0ZM0 7C0 6.44772 0.447715 6 1 6H3.58579C3.851 6 4.10536 6.10536 4.29289 6.29289L5 7H11V13C11 13.5523 10.5523 14 10 14H1C0.447716 14 0 13.5523 0 13V7ZM11.8521 13.7563C12.0103 13.6196 12.126 13.4331 12.1741 13.217L14 7H12V13C12 13.2676 11.9475 13.5229 11.8521 13.7563ZM11 3L8 0V3H11Z" fill="white"/>
</svg>
