<svg width="14" height="15" viewBox="0 0 14 15" fill="none" xmlns="http://www.w3.org/2000/svg">
<path fill-rule="evenodd" clip-rule="evenodd" d="M13.3614 3.16929C13.3584 3.19099 13.3554 3.21268 13.3527 3.23444L13.8829 3.63231C14.0014 3.7215 14.0344 3.88364 13.9601 4.01085L13.4841 4.82753C13.4098 4.95528 13.2512 5.00772 13.114 4.95058L12.503 4.69572C12.3545 4.80766 12.1955 4.90742 12.0205 4.97974L11.9391 5.62199C11.9209 5.7679 11.7954 5.87749 11.6469 5.87749H10.6941C10.5457 5.87749 10.4207 5.7679 10.4019 5.62146L10.3206 4.9792C10.1456 4.90689 9.98714 4.80766 9.83804 4.69508L9.22708 4.95058C9.09039 5.00772 8.93179 4.95474 8.85757 4.82753L8.38093 4.01085C8.3067 3.8831 8.33971 3.72096 8.45817 3.63231L8.98897 3.23444C8.9863 3.21291 8.98333 3.19145 8.98036 3.16997C8.97087 3.10127 8.96135 3.03241 8.96135 2.96089C8.96135 2.88722 8.97143 2.81651 8.9815 2.74581C8.98428 2.72631 8.98705 2.7068 8.98962 2.68724L8.45871 2.28947C8.34025 2.20018 8.30724 2.03804 8.38157 1.91083L8.85757 1.09415C8.93179 0.9664 9.09039 0.913956 9.22762 0.9711L9.83858 1.22606C9.98714 1.11401 10.1462 1.01425 10.3212 0.94194L10.4025 0.299683C10.4207 0.153885 10.5463 0.0441895 10.6948 0.0441895H11.6475C11.796 0.0441895 11.9209 0.153885 11.9398 0.299683L12.021 0.94194C12.196 1.01425 12.3545 1.11348 12.5036 1.22606L13.1145 0.9711C13.2512 0.913956 13.4098 0.967041 13.4841 1.09415L13.9607 1.91083C14.0349 2.03857 14.0019 2.20082 13.8836 2.28947L13.3527 2.68724C13.3554 2.70908 13.3584 2.73084 13.3614 2.75262C13.3709 2.82105 13.3804 2.88959 13.3804 2.96089C13.3804 3.03218 13.3709 3.10082 13.3614 3.16929ZM9.99242 2.96089C9.99242 3.60539 10.5198 4.12749 11.1709 4.12749C11.8219 4.12749 12.3492 3.60539 12.3492 2.96089C12.3492 2.31628 11.8219 1.79419 11.1709 1.79419C10.5198 1.79419 9.99242 2.31628 9.99242 2.96089ZM8.81379 8.79419C8.81379 8.99072 8.79912 9.18672 8.76902 9.37749L9.74183 10.1289C9.97217 10.3062 10.0358 10.6293 9.88974 10.8802L9.26163 11.9582C9.11609 12.2084 8.80322 12.3158 8.53156 12.2079L7.37847 11.75C7.07391 11.9949 6.7304 12.1921 6.36984 12.3292L6.19539 13.5431C6.15418 13.829 5.90377 14.0442 5.61205 14.0442H4.35593C4.0642 14.0442 3.8138 13.829 3.77204 13.5437L3.59759 12.3304C3.23758 12.1951 2.89763 12.0001 2.58422 11.75L1.43641 12.2079C1.16594 12.3152 0.851884 12.2079 0.705806 11.9582L0.0776915 10.8802C-0.0671999 10.6293 -0.00419421 10.3074 0.224417 10.1294L1.19831 9.37289C1.16885 9.1833 1.15418 8.98965 1.15418 8.79419C1.15418 8.59766 1.16885 8.40166 1.19895 8.21089L0.226143 7.45947C-0.00419421 7.28217 -0.0678472 6.95906 0.0782309 6.70816L0.706345 5.63022C0.852531 5.38049 1.16594 5.27315 1.43641 5.38049L2.5895 5.83839C2.89406 5.59348 3.23758 5.3963 3.59813 5.25916L3.77258 4.04524C3.8138 3.75941 4.0642 3.54419 4.35593 3.54419H5.61205C5.90377 3.54419 6.15418 3.75941 6.19539 4.04471L6.36984 5.25798C6.72975 5.39331 7.06981 5.58824 7.38322 5.83839L8.53102 5.38049C8.80149 5.27261 9.11544 5.37996 9.26163 5.63022L9.89028 6.70816C10.0353 6.95906 9.97217 7.28099 9.74356 7.45894L8.76966 8.21548C8.79912 8.40508 8.81379 8.59872 8.81379 8.79419ZM2.92179 8.79419C2.92179 9.91998 3.84681 10.8359 4.98404 10.8359C6.12116 10.8359 7.04618 9.91998 7.04618 8.79419C7.04618 7.6684 6.12116 6.75249 4.98404 6.75249C3.84681 6.75249 2.92179 7.6684 2.92179 8.79419Z" fill="white"/>
</svg>
