<svg width="952" height="686" viewBox="0 0 952 686" fill="none" xmlns="http://www.w3.org/2000/svg">
<g clip-path="url(#clip0)">
<rect width="952" height="685" transform="translate(0 0.856567)" fill="white"/>
<path d="M-4 1.27368H956V685.274H-4V1.27368Z" fill="url(#paint0_linear)"/>
<mask id="mask0" mask-type="alpha" maskUnits="userSpaceOnUse" x="760" y="1" width="196" height="257">
<rect x="760" y="1.27368" width="196" height="256" fill="#C4C4C4"/>
</mask>
<g mask="url(#mask0)">
<path d="M891.426 64.2569C900.037 32.1196 880.965 -0.913674 848.828 -9.52485C816.69 -18.136 783.657 0.935714 775.046 33.0731C766.435 65.2105 785.506 98.2437 817.644 106.855C849.781 115.466 882.814 96.3943 891.426 64.2569Z" stroke="#25CAE0" stroke-width="8" stroke-miterlimit="10"/>
<path d="M908.606 154.037L921.515 147.888C923.096 147.131 924.978 147.379 926.371 148.501L937.717 157.664C939.87 159.402 939.518 162.773 937.058 163.945L924.149 170.094C922.568 170.851 920.685 170.603 919.292 169.481L907.946 160.318C905.794 158.58 906.146 155.209 908.606 154.037Z" stroke="#22D382" stroke-width="8" stroke-miterlimit="10"/>
<path d="M921.577 219.589C926.195 208.6 938.838 203.443 949.827 208.061C960.816 212.679 965.973 225.323 961.355 236.311C956.737 247.3 944.094 252.457 933.105 247.839C922.139 243.208 916.959 230.578 921.577 219.589Z" stroke="#FAB12B" stroke-width="8" stroke-miterlimit="10"/>
<path d="M931.382 -8.70384L970.77 -3.89879C974.411 -3.45466 977.008 -0.140375 976.564 3.50102L971.772 42.9121C971.328 46.5535 968.014 49.1503 964.373 48.7061L924.961 43.9145C921.32 43.4704 918.723 40.1561 919.167 36.5147L923.959 -2.89643C924.413 -6.57456 927.741 -9.14797 931.382 -8.70384Z" stroke="#22D382" stroke-width="8" stroke-miterlimit="10"/>
<path d="M870.218 84.5888L882.273 88.3113C882.815 88.4957 883.137 89.0547 882.953 89.5959L879.23 101.652C879.046 102.193 878.487 102.516 877.946 102.331L865.89 98.6086C865.349 98.4242 865.026 97.8653 865.211 97.324L868.933 85.2683C869.094 84.7406 869.69 84.4277 870.218 84.5888Z" stroke="#F91264" stroke-width="8" stroke-miterlimit="10"/>
<path d="M891.416 184.023L894.284 182.212C894.782 181.893 895.454 182.034 895.786 182.556L897.597 185.423C897.916 185.922 897.776 186.593 897.253 186.926L894.386 188.737C893.887 189.056 893.216 188.915 892.883 188.393L891.072 185.526C890.777 185.013 890.917 184.342 891.416 184.023Z" fill="#25CAE0"/>
<path d="M876.116 128.853L940.748 118.431" stroke="#F91264" stroke-width="8" stroke-miterlimit="10"/>
<path d="M842.687 155.885L851.62 159.361C854.915 160.658 856.559 164.367 855.263 167.662L854.303 170.141" stroke="#25CAE0" stroke-width="8" stroke-miterlimit="10"/>
<path d="M763.458 23.4977C769.218 25.5136 767.038 31.7413 772.798 33.7572C778.558 35.7731 780.738 29.5454 786.498 31.5613C792.258 33.5772 790.078 39.8049 795.838 41.8208C801.598 43.8367 803.778 37.609 809.538 39.6248C815.298 41.6407 813.118 47.8685 818.878 49.8844C824.638 51.9003 826.818 45.6725 832.578 47.6884" stroke="#FAB12B" stroke-width="8" stroke-miterlimit="10"/>
<path d="M945.144 25.244L939.042 72.3367" stroke="#FAB12B" stroke-width="8" stroke-miterlimit="10"/>
</g>
<mask id="mask1" mask-type="alpha" maskUnits="userSpaceOnUse" x="-4" y="453" width="204" height="233">
<path d="M-4 453.274H200V685.274H-4V453.274Z" fill="url(#paint1_linear)"/>
</mask>
<g mask="url(#mask1)">
<path d="M9.31105 464.452C10.9749 460.072 15.8706 457.855 20.2359 459.496C24.6155 461.16 26.8327 466.055 25.1916 470.421C23.5278 474.8 18.6321 477.017 14.2668 475.376C9.87871 473.75 7.6615 468.854 9.31105 464.452Z" stroke="#FAB12B" stroke-width="8" stroke-miterlimit="10"/>
<path d="M45.5274 521.864L42.0461 541.2C41.8968 542.025 42.7136 542.718 43.5198 542.434L62.0126 535.774C62.8187 535.491 63.0046 534.421 62.3477 533.881L47.3362 521.205C46.6794 520.665 45.6995 521.026 45.5274 521.864Z" stroke="#22D382" stroke-width="8" stroke-miterlimit="10"/>
<path d="M-11.8059 525.288C-6.30443 510.686 -13.6665 494.412 -28.2689 488.911" stroke="#F91264" stroke-width="8" stroke-miterlimit="10"/>
<path d="M58.4398 480.631L46.3247 484.905" stroke="#F91264" stroke-width="8" stroke-miterlimit="10"/>
<path d="M46.4518 648.794C49.2266 641.43 57.4544 637.692 64.8183 640.467C72.1823 643.241 75.9206 651.469 73.1457 658.833C70.3709 666.197 62.1431 669.935 54.7791 667.161C47.3924 664.4 43.6542 656.172 46.4518 648.794Z" stroke="#F91264" stroke-width="8" stroke-miterlimit="10"/>
<path d="M-4.45888 632.559L3.75132 644.266C4.74938 645.704 4.82478 647.593 3.96154 649.152L-3.17474 661.859C-4.54639 664.277 -7.90988 664.484 -9.49121 662.269L-17.7014 650.562C-18.6995 649.124 -18.7749 647.234 -17.9116 645.676L-10.7753 632.969C-9.40369 630.551 -6.01743 630.33 -4.45888 632.559Z" stroke="#25CAE0" stroke-width="8" stroke-miterlimit="10"/>
<path d="M-58.5681 548.527L-19.0288 551.865C-15.3734 552.173 -12.6553 555.388 -12.9638 559.044L-16.2869 598.606C-16.5954 602.261 -19.8108 604.979 -23.4662 604.671L-63.0283 601.348C-66.6836 601.039 -69.4018 597.824 -69.0933 594.169L-65.7702 554.606C-65.4532 550.914 -62.2235 548.219 -58.5681 548.527Z" stroke="#22D382" stroke-width="8" stroke-miterlimit="10"/>
<path d="M84.4864 583.24L88.1281 562.945C88.7703 559.366 92.1775 557.004 95.7567 557.646L116.051 561.288C119.63 561.93 121.992 565.337 121.35 568.916L117.708 589.211C117.066 592.79 113.659 595.152 110.08 594.51L89.7856 590.868C86.2064 590.226 83.8299 586.796 84.4864 583.24Z" stroke="#25CAE0" stroke-width="8" stroke-miterlimit="10"/>
<path d="M119.748 639.537L183.495 642.28C190.278 642.562 195.539 648.309 195.243 655.069L192.477 718.83C192.195 725.612 186.448 730.873 179.688 730.577L115.927 727.812C109.144 727.53 103.884 721.783 104.18 715.023L106.923 651.276C107.241 644.502 112.966 639.255 119.748 639.537Z" stroke="#FAB12B" stroke-width="8" stroke-miterlimit="10"/>
<path d="M67.8544 572.534L70.6525 570.618C71.1393 570.281 71.8152 570.396 72.1669 570.905L74.0831 573.704C74.4205 574.19 74.3051 574.866 73.7956 575.218L70.9974 577.134C70.5107 577.472 69.8348 577.356 69.4831 576.847L67.5669 574.049C67.2379 573.525 67.3676 572.872 67.8544 572.534Z" fill="#25CAE0"/>
<path d="M108.642 624.027L112.155 621.631C112.778 621.207 113.616 621.379 114.025 621.98L116.422 625.493C116.845 626.116 116.673 626.955 116.073 627.364L112.56 629.76C111.937 630.184 111.098 630.011 110.689 629.411L108.293 625.898C107.869 625.275 108.041 624.436 108.642 624.027Z" fill="#FAB12B"/>
<path d="M27.4938 578.255L39.8352 591.433C44.3814 596.295 44.1443 603.908 39.2966 608.477L35.6437 611.914" stroke="#FAB12B" stroke-width="8" stroke-miterlimit="10"/>
<path d="M13.1011 505.58L22.1564 508.722C25.4972 509.895 27.2784 513.54 26.1054 516.881L25.2386 519.394" stroke="#25CAE0" stroke-width="8" stroke-miterlimit="10"/>
<path d="M124.394 666.504L149.985 623.31" stroke="#25CAE0" stroke-width="8" stroke-miterlimit="10"/>
</g>
<path d="M379.23 319.752H387.68V358.711H379.23V319.752Z" fill="white"/>
<path d="M422.525 358.786L412.879 345.401L403.158 358.711H393.362L408.018 338.671L394.11 319.752H403.831L412.804 332.09L421.777 319.752H431.573L417.665 338.745L432.246 358.711H422.525V358.786Z" fill="white"/>
<path d="M353.806 319.229C348.945 319.229 344.533 321.398 341.542 324.763C338.551 321.398 334.214 319.229 329.354 319.229C320.38 319.229 313.052 326.557 313.052 335.53V358.786H321.203V335.53C321.203 331.044 324.867 327.38 329.354 327.38C333.84 327.38 337.504 331.044 337.504 335.53V358.786H345.655V335.53C345.655 331.044 349.319 327.38 353.806 327.38C358.292 327.38 361.957 331.044 361.957 335.53V358.786H370.107V335.53C370.107 326.557 362.779 319.229 353.806 319.229Z" fill="white"/>
<path d="M286.356 371.274H280V363.422L286.356 363.347C292.862 363.347 295.255 360.207 295.255 353.701V319.752H303.854V353.776C303.854 365.067 297.647 371.274 286.356 371.274Z" fill="white"/>
<path d="M460.781 317.147C464.903 317.147 468.338 318.521 471.086 321.269C473.875 324.017 475.27 327.431 475.27 331.511C475.27 335.55 473.875 338.964 471.086 341.754C468.338 344.502 464.903 345.876 460.781 345.876H451.85V360.864H444.668V317.147H460.781ZM460.781 339.131C462.905 339.131 464.653 338.423 466.027 337.007C467.401 335.55 468.088 333.718 468.088 331.511C468.088 329.305 467.401 327.494 466.027 326.078C464.653 324.621 462.905 323.892 460.781 323.892H451.85V339.131H460.781Z" fill="#FAB12B"/>
<path d="M483.255 348.124C483.754 350.497 484.899 352.329 486.689 353.62C488.48 354.869 490.666 355.493 493.247 355.493C496.828 355.493 499.513 354.203 501.304 351.621L506.862 354.869C503.781 359.407 499.222 361.676 493.185 361.676C488.105 361.676 484.004 360.136 480.881 357.055C477.759 353.932 476.197 349.998 476.197 345.251C476.197 340.588 477.738 336.695 480.819 333.572C483.9 330.408 487.855 328.826 492.685 328.826C497.265 328.826 501.012 330.429 503.927 333.635C506.883 336.841 508.361 340.734 508.361 345.314C508.361 346.021 508.277 346.958 508.111 348.124H483.255ZM483.192 342.628H501.553C501.095 340.088 500.034 338.173 498.368 336.882C496.744 335.592 494.829 334.946 492.623 334.946C490.124 334.946 488.043 335.633 486.377 337.007C484.712 338.381 483.65 340.255 483.192 342.628Z" fill="#FAB12B"/>
<path d="M530.12 336.133H522.376V351.122C522.376 352.412 522.667 353.349 523.25 353.932C523.833 354.473 524.686 354.786 525.811 354.869C526.976 354.911 528.413 354.89 530.12 354.806V360.864C524.957 361.489 521.251 361.052 519.003 359.553C516.755 358.012 515.631 355.202 515.631 351.122V336.133H509.885V329.638H515.631V322.893L522.376 320.894V329.638H530.12V336.133Z" fill="#FAB12B"/>
<path d="M549.071 361.676C544.366 361.676 540.432 360.094 537.267 356.93C534.145 353.766 532.583 349.873 532.583 345.251C532.583 340.588 534.145 336.695 537.267 333.572C540.432 330.408 544.366 328.826 549.071 328.826C552.11 328.826 554.879 329.555 557.377 331.012C559.875 332.469 561.749 334.426 562.998 336.882L557.19 340.255C556.482 338.756 555.4 337.59 553.942 336.758C552.527 335.883 550.882 335.446 549.008 335.446C546.261 335.446 543.95 336.383 542.076 338.256C540.244 340.13 539.328 342.462 539.328 345.251C539.328 348.041 540.244 350.372 542.076 352.246C543.95 354.12 546.261 355.056 549.008 355.056C550.84 355.056 552.485 354.619 553.942 353.745C555.441 352.87 556.565 351.705 557.315 350.247L563.123 353.557C561.791 356.056 559.875 358.033 557.377 359.49C554.879 360.948 552.11 361.676 549.071 361.676Z" fill="#FAB12B"/>
<path d="M567.557 360.864V315.274H574.302V360.864H567.557Z" fill="#FAB12B"/>
<path d="M587.254 323.705C586.422 324.538 585.422 324.954 584.256 324.954C583.091 324.954 582.071 324.538 581.196 323.705C580.364 322.83 579.947 321.81 579.947 320.645C579.947 319.479 580.364 318.48 581.196 317.647C582.029 316.772 583.049 316.335 584.256 316.335C585.464 316.335 586.484 316.772 587.317 317.647C588.149 318.48 588.566 319.479 588.566 320.645C588.566 321.81 588.129 322.83 587.254 323.705ZM580.884 360.864V329.638H587.629V360.864H580.884Z" fill="#FAB12B"/>
<path d="M611.261 328.826C614.842 328.826 617.735 329.971 619.942 332.261C622.149 334.551 623.252 337.694 623.252 341.691V360.864H616.507V342.378C616.507 340.047 615.883 338.256 614.634 337.007C613.385 335.758 611.677 335.134 609.512 335.134C607.139 335.134 605.224 335.883 603.767 337.382C602.309 338.839 601.581 341.088 601.581 344.127V360.864H594.836V329.638H601.581V333.635C603.621 330.429 606.848 328.826 611.261 328.826Z" fill="#FAB12B"/>
<path d="M635.636 323.705C634.803 324.538 633.804 324.954 632.638 324.954C631.472 324.954 630.452 324.538 629.578 323.705C628.745 322.83 628.329 321.81 628.329 320.645C628.329 319.479 628.745 318.48 629.578 317.647C630.411 316.772 631.431 316.335 632.638 316.335C633.846 316.335 634.866 316.772 635.698 317.647C636.531 318.48 636.947 319.479 636.947 320.645C636.947 321.81 636.51 322.83 635.636 323.705ZM629.266 360.864V329.638H636.011V360.864H629.266Z" fill="#FAB12B"/>
<path d="M657.332 361.676C652.627 361.676 648.693 360.094 645.528 356.93C642.406 353.766 640.844 349.873 640.844 345.251C640.844 340.588 642.406 336.695 645.528 333.572C648.693 330.408 652.627 328.826 657.332 328.826C660.371 328.826 663.14 329.555 665.638 331.012C668.136 332.469 670.01 334.426 671.259 336.882L665.451 340.255C664.743 338.756 663.661 337.59 662.203 336.758C660.788 335.883 659.143 335.446 657.27 335.446C654.522 335.446 652.211 336.383 650.337 338.256C648.505 340.13 647.589 342.462 647.589 345.251C647.589 348.041 648.505 350.372 650.337 352.246C652.211 354.12 654.522 355.056 657.27 355.056C659.102 355.056 660.746 354.619 662.203 353.745C663.702 352.87 664.826 351.705 665.576 350.247L671.384 353.557C670.052 356.056 668.136 358.033 665.638 359.49C663.14 360.948 660.371 361.676 657.332 361.676Z" fill="#FAB12B"/>
<g opacity="0.6">
<ellipse cx="499.703" cy="521.421" rx="4.73494" ry="7.89157" transform="rotate(30 499.703 521.421)" fill="#B0A7FF"/>
<ellipse cx="460.393" cy="517.122" rx="4.73494" ry="7.89157" transform="rotate(-15 460.393 517.122)" fill="#B0A7FF"/>
<ellipse cx="519.798" cy="547.097" rx="4.73494" ry="7.89157" transform="rotate(60 519.798 547.097)" fill="#B0A7FF"/>
<ellipse cx="431.928" cy="542.455" rx="4.73494" ry="7.89157" transform="rotate(-45 431.928 542.455)" fill="#B0A7FF"/>
<path d="M443.518 575.352L434.443 685.44H474.295H514.148L506.651 578.903C518.093 571.012 525.196 557.202 520.855 548.521C517.383 541.576 509.939 540.366 506.651 540.629C508.755 537.078 510.596 528.239 501.127 521.295C491.657 514.35 482.713 522.347 479.425 527.213C477.846 522.347 471.849 513.482 460.485 516.954C449.121 520.427 448.648 530.765 449.831 535.5C439.73 532.343 433.259 539.708 431.286 543.786C424.026 557.991 436.416 570.749 443.518 575.352Z" fill="white"/>
<ellipse cx="448.732" cy="551.925" rx="4.73494" ry="5.5241" transform="rotate(-45 448.732 551.925)" fill="#6356C0"/>
<ellipse cx="465.375" cy="533.527" rx="4.73494" ry="5.5241" transform="rotate(-15 465.375 533.527)" fill="#6356C0"/>
<ellipse cx="491.657" cy="536.683" rx="4.73494" ry="5.5241" transform="rotate(30 491.657 536.683)" fill="#6356C0"/>
<path d="M486.133 552.072C481.713 547.968 477.846 547.732 475.874 547.732C474.164 547.732 469.718 548.6 465.615 552.072C460.485 556.412 455.969 561.936 460.88 568.25C464.255 572.59 471.139 572.985 473.506 571.406C473.901 571.143 474.927 570.617 475.874 570.617C476.505 570.617 477.452 571.143 477.846 571.406C480.608 572.59 487.395 572.985 490.868 568.25C495.208 562.331 491.657 557.201 486.133 552.072Z" fill="#6356C0"/>
<path d="M487.711 587.19C479.819 589.952 474.69 589.952 466.798 587.979" stroke="#6356C0" stroke-width="5" stroke-linecap="round"/>
<ellipse cx="505.224" cy="555.082" rx="4.73494" ry="5.5241" transform="rotate(60 505.224 555.082)" fill="#6356C0"/>
<g opacity="0.21">
<mask id="mask2" mask-type="alpha" maskUnits="userSpaceOnUse" x="429" y="516" width="94" height="170">
<path d="M443.518 575.352L434.443 685.44H514.148L506.651 578.903C518.093 571.012 525.196 557.202 520.855 548.521C517.383 541.576 509.939 540.366 506.651 540.629C508.755 537.078 510.596 528.239 501.127 521.295C491.657 514.35 482.713 522.347 479.425 527.213C477.846 522.347 471.849 513.482 460.485 516.954C449.121 520.427 448.648 530.765 449.831 535.5C439.73 532.343 433.259 539.708 431.286 543.786C424.026 557.991 436.416 570.749 443.518 575.352Z" fill="white"/>
</mask>
<g mask="url(#mask2)">
<path d="M471.139 617.967C459.775 616.704 445.096 606.655 439.178 601.789C429.182 609.812 415.187 627.436 439.178 633.75C469.166 641.641 485.343 619.545 471.139 617.967Z" fill="#968AF7"/>
<path d="M494.024 608.102C494.655 600.211 507.44 596.923 513.753 596.265V613.626C506.914 615.073 493.393 615.994 494.024 608.102Z" fill="#968AF7"/>
<path d="M477.452 640.852C490.71 641.484 508.755 636.907 516.121 634.539C521.776 640.326 530.72 653.321 521.25 659.003C509.413 666.105 482.976 660.581 477.452 659.003C471.928 657.425 460.88 640.063 477.452 640.852Z" fill="#968AF7"/>
<path d="M461.669 670.84C449.042 670.84 431.944 659.792 424.973 654.268L418.66 686.623C430.102 687.676 456.46 689.149 470.349 686.623C487.711 683.467 477.452 670.84 461.669 670.84Z" fill="#968AF7"/>
</g>
</g>
<path d="M434.443 685.44L443.518 575.352C436.416 570.749 424.026 557.991 431.286 543.786C433.259 539.708 439.73 532.343 449.831 535.5C448.648 530.765 449.121 520.427 460.485 516.954C471.849 513.482 477.846 522.347 479.425 527.213C482.713 522.347 491.657 514.35 501.127 521.295C510.596 528.239 508.755 537.078 506.651 540.629C509.939 540.366 517.383 541.576 520.855 548.521C525.196 557.202 518.093 571.012 506.651 578.903L514.148 685.44" stroke="#6356C0" stroke-width="4"/>
</g>
<path opacity="0.3" fill-rule="evenodd" clip-rule="evenodd" d="M508.929 30.2157C514.997 21.2749 515.994 8.17579 516 1.27356H530C529.993 8.58459 529.103 25.4204 520.512 38.0779C516.047 44.6571 509.46 50.2337 500.07 52.6867C490.821 55.103 479.593 54.2962 466.065 49.6178C438.725 40.1631 413.632 41.0145 395.769 48.2472C377.979 55.4499 367.878 68.5809 367.878 84.3352C367.878 93.082 369.551 100.354 372.988 106.525C376.417 112.681 381.86 118.206 390.133 123.066C406.979 132.962 434.79 139.668 478.115 143.114L477.004 157.07C433.312 153.595 402.782 146.734 383.042 135.138C373.021 129.251 365.609 122.049 360.757 113.337C355.913 104.639 353.878 94.9002 353.878 84.3352C353.878 61.4658 368.882 44.0291 390.515 35.2705C412.073 26.542 440.718 26.0388 470.64 36.3866C482.48 40.4811 490.771 40.6461 496.532 39.1413C502.152 37.673 506.064 34.4356 508.929 30.2157Z" fill="#C5BFF7"/>
<circle cx="476.47" cy="149.698" r="52.3077" fill="#FAB12B"/>
<circle cx="476.471" cy="149.698" r="43.6772" stroke="#7867F6" stroke-width="4"/>
<circle cx="476.47" cy="149.698" r="20.6284" fill="#6A5ADA"/>
</g>
<defs>
<linearGradient id="paint0_linear" x1="766.297" y1="1.27365" x2="332.426" y2="685.96" gradientUnits="userSpaceOnUse">
<stop stop-color="#6C5BE7"/>
<stop offset="1" stop-color="#6559BC"/>
</linearGradient>
<linearGradient id="paint1_linear" x1="159.688" y1="453.274" x2="-3.04408" y2="614.165" gradientUnits="userSpaceOnUse">
<stop stop-color="#6C5BE7"/>
<stop offset="1" stop-color="#6559BC"/>
</linearGradient>
<clipPath id="clip0">
<rect width="952" height="685" fill="white" transform="translate(0 0.856567)"/>
</clipPath>
</defs>
</svg>
