<?xml version="1.0" encoding="UTF-8" standalone="no"?>
<!DOCTYPE svg PUBLIC "-//W3C//DTD SVG 1.1//EN" "http://www.w3.org/Graphics/SVG/1.1/DTD/svg11.dtd">
<svg width="100%" height="100%" viewBox="0 0 648 105" version="1.1" xmlns="http://www.w3.org/2000/svg" xmlns:xlink="http://www.w3.org/1999/xlink" xml:space="preserve" xmlns:serif="http://www.serif.com/" style="fill-rule:evenodd;clip-rule:evenodd;">
    <g transform="matrix(2.75745,0,0,2.76316,0,0)">
        <path d="M37.828,25.761L31.927,3.732C31.582,2.443 30.739,1.344 29.583,0.676C28.427,0.008 27.054,-0.174 25.764,0.171L3.733,6.077C2.443,6.422 1.344,7.265 0.676,8.42C0.008,9.576 -0.174,10.949 0.171,12.239L6.072,34.268C6.417,35.557 7.26,36.656 8.416,37.324C9.571,37.992 10.945,38.174 12.234,37.83L34.266,31.929C34.905,31.758 35.504,31.463 36.029,31.061C36.554,30.658 36.995,30.156 37.325,29.583C37.656,29.01 37.871,28.378 37.957,27.722C38.043,27.067 37.999,26.4 37.828,25.761Z" style="fill:rgb(250,177,43);fill-rule:nonzero;"/>
    </g>
    <g transform="matrix(2.75745,0,0,2.76316,0,0)">
        <path d="M15.937,9.578C16.167,6.493 17.627,2.969 19.546,2.969C21.072,2.969 21.726,4.905 22.007,6.566C23.154,6.34 24.334,6.234 25.484,6.234C26.826,6.234 28.219,6.505 29.531,7.004C29.798,5.313 30.446,3.266 32.015,3.266C34.53,3.266 36.171,9.203 35.46,12.5C35.46,12.5 35.874,13.359 35.874,14.844C35.874,18.109 33.202,22.563 28.156,23.156L25.154,33.267C24.776,34.331 23.266,34.316 22.909,33.245L22.54,32.139C22.447,31.857 22.043,31.873 21.971,32.161L21.718,33.174C21.426,34.342 19.667,34.353 19.267,33.265L18.462,31.083C18.457,31.069 18.451,31.056 18.444,31.043C16.996,31.498 15.439,31.485 13.997,31.004L13.962,30.993C13.768,30.928 13.558,31.035 13.496,31.23L12.844,33.298C12.506,34.367 11.011,34.416 10.604,33.371L10.026,31.883C9.928,31.631 9.571,31.631 9.473,31.883L8.847,33.493C8.446,34.524 6.977,34.495 6.617,33.449L3.812,27.016C2.822,26.026 0.843,22.859 0.843,18.109C0.843,18.096 0.843,18.084 0.843,18.071C0.843,18.059 0.843,18.047 0.843,18.036C0.843,17.98 0.843,17.926 0.844,17.872C0.843,17.852 0.843,17.832 0.843,17.813L0.843,5.938C0.843,4.462 2.039,3.266 3.515,3.266C4.991,3.266 6.187,4.462 6.187,5.938L6.187,13.656C6.187,15.438 6.781,16.031 7.968,16.031L13.015,16.031C13.609,16.031 13.907,15.474 13.906,14.86L13.906,14.844C13.906,12.62 14.686,10.887 15.937,9.578Z" style="fill:white;fill-rule:nonzero;stroke:rgb(99,86,192);stroke-width:1.2px;"/>
    </g>
    <g transform="matrix(2.75745,0,0,2.76316,0,0)">
        <path d="M25.484,15.438C24.593,15.438 21.624,13.656 21.624,12.766C21.624,11.281 23.999,10.688 25.484,10.688C26.968,10.688 29.343,11.281 29.343,12.766C29.343,13.656 26.374,15.438 25.484,15.438Z" style="fill:rgb(99,86,192);fill-rule:nonzero;"/>
    </g>
    <g transform="matrix(2.75745,0,0,2.76316,0,0)">
        <g opacity="0.4">
            <path d="M17.381,31.291C16.252,31.465 15.092,31.369 13.997,31.004L13.962,30.993C13.768,30.928 13.558,31.035 13.496,31.23L12.844,33.298C12.506,34.367 11.011,34.416 10.604,33.371L10.026,31.883C9.928,31.631 9.571,31.631 9.473,31.883L9.165,32.675L9.156,32.656L9.325,31.977C9.824,29.981 12.151,29.059 14.011,29.938C15.415,30.602 16.946,31.172 18.062,31.172L17.381,31.291Z" style="fill:rgb(99,86,192);fill-rule:nonzero;"/>
            <path d="M0.843,13.834C1.434,14.445 2.411,14.844 3.515,14.844C4.62,14.844 5.596,14.445 6.187,13.835L6.187,12.054C5.596,12.664 4.62,13.063 3.515,13.063C2.411,13.063 1.434,12.664 0.843,12.053L0.843,13.834ZM0.843,10.866C1.434,11.476 2.411,11.875 3.515,11.875C4.62,11.875 5.596,11.476 6.187,10.866L6.187,9.085C5.596,9.695 4.62,10.094 3.515,10.094C2.411,10.094 1.434,9.695 0.843,9.084L0.843,10.866ZM0.843,7.897C1.434,8.507 2.411,8.906 3.515,8.906C4.62,8.906 5.596,8.508 6.187,7.897L6.187,6.116C5.596,6.726 4.62,7.125 3.515,7.125C2.411,7.125 1.434,6.726 0.843,6.116L0.843,7.897Z" style="fill:rgb(99,86,192);"/>
            <path d="M20.196,4.949L20.615,5.893C20.843,6.406 20.604,7.006 20.086,7.222L18.413,7.919C18.023,8.081 17.614,7.73 17.716,7.319C17.942,6.415 18.41,5.589 19.069,4.93L19.229,4.77C19.525,4.474 20.026,4.567 20.196,4.949Z" style="fill:rgb(99,86,192);fill-rule:nonzero;"/>
            <path d="M31.366,5.543L30.946,6.486C30.718,6.999 30.957,7.6 31.476,7.816L33.148,8.513C33.538,8.675 33.947,8.323 33.845,7.913C33.619,7.009 33.151,6.183 32.492,5.524L32.332,5.364C32.036,5.068 31.535,5.161 31.366,5.543Z" style="fill:rgb(99,86,192);fill-rule:nonzero;"/>
            <path d="M7.968,16.031L9.749,16.031L9.749,21.078C9.749,21.57 9.351,21.969 8.859,21.969C8.367,21.969 7.968,21.57 7.968,21.078L7.968,16.031Z" style="fill:rgb(99,86,192);fill-rule:nonzero;"/>
            <path d="M10.937,16.031L12.718,16.031L12.718,21.078C12.718,21.57 12.319,21.969 11.827,21.969C11.336,21.969 10.937,21.57 10.937,21.078L10.937,16.031Z" style="fill:rgb(99,86,192);fill-rule:nonzero;"/>
            <path d="M28.156,23.156C28.156,23.156 23.406,23.75 20.14,21.969C20.14,21.969 20.936,27.241 26.924,27.312L28.156,23.156Z" style="fill:rgb(99,86,192);fill-rule:nonzero;"/>
            <path d="M26.296,29.42L25.154,33.267C24.776,34.331 23.266,34.316 22.909,33.245L22.54,32.139C22.49,31.987 22.349,31.921 22.218,31.939L22.366,30.962C22.366,30.962 24.593,31.172 26.296,29.42Z" style="fill:rgb(99,86,192);fill-rule:nonzero;"/>
        </g>
    </g>
    <g transform="matrix(2.75745,0,0,2.76316,0,0)">
        <path d="M25.484,16.328C25.781,17.516 26.671,17.813 27.562,17.813C27.265,18.109 26.671,18.703 25.484,18.703C24.296,18.704 23.702,18.109 23.406,17.813C24.296,17.813 25.187,17.516 25.484,16.328Z" style="fill:rgb(99,86,192);fill-rule:nonzero;"/>
    </g>
    <g transform="matrix(2.75745,0,0,2.76316,0,0)">
        <path d="M28.726,23.162C27.595,23.275 24.202,23.976 20.583,21.941" style="fill:none;fill-rule:nonzero;stroke:rgb(99,86,192);stroke-width:1.2px;stroke-linecap:round;"/>
    </g>
    <g transform="matrix(2.75745,0,0,2.76316,0,0)">
        <rect x="93.666" y="8.251" width="4.059" height="18.714" style="fill:rgb(99,86,192);fill-rule:nonzero;"/>
    </g>
    <g transform="matrix(2.75745,0,0,2.76316,0,0)">
        <path d="M114.463,27.002L109.83,20.572L105.16,26.966L100.455,26.966L107.495,17.339L100.814,8.251L105.483,8.251L109.794,14.178L114.104,8.251L118.81,8.251L112.129,17.375L119.133,26.966L114.463,26.966L114.463,27.002Z" style="fill:rgb(99,86,192);fill-rule:nonzero;"/>
    </g>
    <g transform="matrix(2.75745,0,0,2.76316,0,0)">
        <path d="M81.453,8C79.118,8 76.999,9.042 75.562,10.658C74.125,9.042 72.042,8 69.707,8C65.397,8 61.877,11.52 61.877,15.831L61.877,27.002L65.792,27.002L65.792,15.831C65.792,13.675 67.552,11.915 69.707,11.915C71.863,11.915 73.623,13.675 73.623,15.831L73.623,27.002L77.538,27.002L77.538,15.831C77.538,13.675 79.298,11.915 81.453,11.915C83.608,11.915 85.368,13.675 85.368,15.831L85.368,27.002L89.284,27.002L89.284,15.831C89.284,11.52 85.763,8 81.453,8Z" style="fill:rgb(99,86,192);fill-rule:nonzero;"/>
    </g>
    <g transform="matrix(2.75745,0,0,2.76316,0,0)">
        <path d="M49.053,33L46,33L46,29.229L49.053,29.193C52.178,29.193 53.328,27.684 53.328,24.559L53.328,8.251L57.459,8.251L57.459,24.595C57.459,30.019 54.477,33 49.053,33Z" style="fill:rgb(99,86,192);fill-rule:nonzero;"/>
    </g>
    <g transform="matrix(2.75745,0,0,2.76316,0,0)">
        <path d="M132.84,7C134.82,7 136.47,7.66 137.79,8.98C139.13,10.3 139.8,11.94 139.8,13.9C139.8,15.84 139.13,17.48 137.79,18.82C136.47,20.14 134.82,20.8 132.84,20.8L128.55,20.8L128.55,28L125.1,28L125.1,7L132.84,7ZM132.84,17.56C133.86,17.56 134.7,17.22 135.36,16.54C136.02,15.84 136.35,14.96 136.35,13.9C136.35,12.84 136.02,11.97 135.36,11.29C134.7,10.59 133.86,10.24 132.84,10.24L128.55,10.24L128.55,17.56L132.84,17.56Z" style="fill:rgb(250,177,43);fill-rule:nonzero;"/>
    </g>
    <g transform="matrix(2.75745,0,0,2.76316,0,0)">
        <path d="M143.635,21.88C143.875,23.02 144.425,23.9 145.285,24.52C146.145,25.12 147.195,25.42 148.435,25.42C150.155,25.42 151.445,24.8 152.305,23.56L154.975,25.12C153.495,27.3 151.305,28.39 148.405,28.39C145.965,28.39 143.995,27.65 142.495,26.17C140.995,24.67 140.245,22.78 140.245,20.5C140.245,18.26 140.985,16.39 142.465,14.89C143.945,13.37 145.845,12.61 148.165,12.61C150.365,12.61 152.165,13.38 153.565,14.92C154.985,16.46 155.695,18.33 155.695,20.53C155.695,20.87 155.655,21.32 155.575,21.88L143.635,21.88ZM143.605,19.24L152.425,19.24C152.205,18.02 151.695,17.1 150.895,16.48C150.115,15.86 149.195,15.55 148.135,15.55C146.935,15.55 145.935,15.88 145.135,16.54C144.335,17.2 143.825,18.1 143.605,19.24Z" style="fill:rgb(250,177,43);fill-rule:nonzero;"/>
    </g>
    <g transform="matrix(2.75745,0,0,2.76316,0,0)">
        <path d="M166.147,16.12L162.427,16.12L162.427,23.32C162.427,23.94 162.567,24.39 162.847,24.67C163.127,24.93 163.537,25.08 164.077,25.12C164.637,25.14 165.327,25.13 166.147,25.09L166.147,28C163.667,28.3 161.887,28.09 160.807,27.37C159.727,26.63 159.187,25.28 159.187,23.32L159.187,16.12L156.427,16.12L156.427,13L159.187,13L159.187,9.76L162.427,8.8L162.427,13L166.147,13L166.147,16.12Z" style="fill:rgb(250,177,43);fill-rule:nonzero;"/>
    </g>
    <g transform="matrix(2.75745,0,0,2.76316,0,0)">
        <path d="M175.251,28.39C172.991,28.39 171.101,27.63 169.581,26.11C168.081,24.59 167.331,22.72 167.331,20.5C167.331,18.26 168.081,16.39 169.581,14.89C171.101,13.37 172.991,12.61 175.251,12.61C176.711,12.61 178.041,12.96 179.241,13.66C180.441,14.36 181.341,15.3 181.941,16.48L179.151,18.1C178.811,17.38 178.291,16.82 177.591,16.42C176.911,16 176.121,15.79 175.221,15.79C173.901,15.79 172.791,16.24 171.891,17.14C171.011,18.04 170.571,19.16 170.571,20.5C170.571,21.84 171.011,22.96 171.891,23.86C172.791,24.76 173.901,25.21 175.221,25.21C176.101,25.21 176.891,25 177.591,24.58C178.311,24.16 178.851,23.6 179.211,22.9L182.001,24.49C181.361,25.69 180.441,26.64 179.241,27.34C178.041,28.04 176.711,28.39 175.251,28.39Z" style="fill:rgb(250,177,43);fill-rule:nonzero;"/>
    </g>
    <g transform="matrix(2.75745,0,0,2.76316,0,0)">
        <rect x="184.131" y="6.1" width="3.24" height="21.9" style="fill:rgb(250,177,43);fill-rule:nonzero;"/>
    </g>
    <g transform="matrix(2.75745,0,0,2.76316,0,0)">
        <path d="M193.593,10.15C193.193,10.55 192.713,10.75 192.153,10.75C191.593,10.75 191.103,10.55 190.683,10.15C190.283,9.73 190.083,9.24 190.083,8.68C190.083,8.12 190.283,7.64 190.683,7.24C191.083,6.82 191.573,6.61 192.153,6.61C192.733,6.61 193.223,6.82 193.623,7.24C194.023,7.64 194.223,8.12 194.223,8.68C194.223,9.24 194.013,9.73 193.593,10.15ZM190.533,28L190.533,13L193.773,13L193.773,28L190.533,28Z" style="fill:rgb(250,177,43);fill-rule:nonzero;"/>
    </g>
    <g transform="matrix(2.75745,0,0,2.76316,0,0)">
        <path d="M205.125,12.61C206.845,12.61 208.235,13.16 209.295,14.26C210.354,15.36 210.885,16.87 210.885,18.79L210.885,28L207.645,28L207.645,19.12C207.645,18 207.345,17.14 206.745,16.54C206.145,15.94 205.325,15.64 204.285,15.64C203.145,15.64 202.225,16 201.525,16.72C200.825,17.42 200.475,18.5 200.475,19.96L200.475,28L197.235,28L197.235,13L200.475,13L200.475,14.92C201.455,13.38 203.005,12.61 205.125,12.61Z" style="fill:rgb(250,177,43);fill-rule:nonzero;"/>
    </g>
    <g transform="matrix(2.75745,0,0,2.76316,0,0)">
        <path d="M216.833,10.15C216.433,10.55 215.953,10.75 215.393,10.75C214.833,10.75 214.343,10.55 213.923,10.15C213.523,9.73 213.323,9.24 213.323,8.68C213.323,8.12 213.523,7.64 213.923,7.24C214.323,6.82 214.813,6.61 215.393,6.61C215.973,6.61 216.463,6.82 216.863,7.24C217.263,7.64 217.463,8.12 217.463,8.68C217.463,9.24 217.253,9.73 216.833,10.15ZM213.773,28L213.773,13L217.013,13L217.013,28L213.773,28Z" style="fill:rgb(250,177,43);fill-rule:nonzero;"/>
    </g>
    <g transform="matrix(2.75745,0,0,2.76316,0,0)">
        <path d="M227.255,28.39C224.995,28.39 223.105,27.63 221.585,26.11C220.085,24.59 219.335,22.72 219.335,20.5C219.335,18.26 220.085,16.39 221.585,14.89C223.105,13.37 224.995,12.61 227.255,12.61C228.715,12.61 230.045,12.96 231.245,13.66C232.445,14.36 233.345,15.3 233.945,16.48L231.155,18.1C230.815,17.38 230.295,16.82 229.595,16.42C228.915,16 228.125,15.79 227.225,15.79C225.905,15.79 224.795,16.24 223.895,17.14C223.015,18.04 222.575,19.16 222.575,20.5C222.575,21.84 223.015,22.96 223.895,23.86C224.795,24.76 225.905,25.21 227.225,25.21C228.105,25.21 228.895,25 229.595,24.58C230.315,24.16 230.855,23.6 231.215,22.9L234.005,24.49C233.365,25.69 232.445,26.64 231.245,27.34C230.045,28.04 228.715,28.39 227.255,28.39Z" style="fill:rgb(250,177,43);fill-rule:nonzero;"/>
    </g>
</svg>
