<?xml version="1.0" encoding="UTF-8"?>
<svg xmlns="http://www.w3.org/2000/svg" xmlns:xlink="http://www.w3.org/1999/xlink" width="648pt" height="114pt" viewBox="0 0 648 114" version="1.1">
<defs>
<filter id="alpha" filterUnits="objectBoundingBox" x="0%" y="0%" width="100%" height="100%">
  <feColorMatrix type="matrix" in="SourceGraphic" values="0 0 0 0 1 0 0 0 0 1 0 0 0 0 1 0 0 0 1 0"/>
</filter>
<mask id="mask0">
  <g filter="url(#alpha)">
<rect x="0" y="0" width="648" height="114" style="fill:rgb(0%,0%,0%);fill-opacity:0.4;stroke:none;"/>
  </g>
</mask>
<clipPath id="clip1">
  <rect x="0" y="0" width="648" height="114"/>
</clipPath>
<g id="surface5" clip-path="url(#clip1)">
<path style=" stroke:none;fill-rule:nonzero;fill:rgb(38.823529%,33.72549%,75.294118%);fill-opacity:1;" d="M 52.144531 93.871094 C 48.753906 94.394531 45.273438 94.109375 41.988281 93.011719 L 41.886719 92.976562 C 41.304688 92.785156 40.675781 93.105469 40.488281 93.691406 L 38.53125 99.894531 C 37.515625 103.101562 33.03125 103.246094 31.8125 100.113281 L 30.078125 95.648438 C 29.785156 94.894531 28.710938 94.894531 28.417969 95.648438 L 27.496094 98.023438 L 27.464844 97.96875 L 27.976562 95.929688 C 29.472656 89.941406 36.453125 87.175781 42.03125 89.816406 C 46.246094 91.804688 50.835938 93.515625 54.183594 93.515625 Z M 52.144531 93.871094 "/>
<path style=" stroke:none;fill-rule:evenodd;fill:rgb(38.823529%,33.72549%,75.294118%);fill-opacity:1;" d="M 2.53125 41.503906 C 4.300781 43.335938 7.230469 44.53125 10.546875 44.53125 C 13.859375 44.53125 16.789062 43.335938 18.5625 41.503906 L 18.5625 36.160156 C 16.789062 37.992188 13.859375 39.1875 10.546875 39.1875 C 7.230469 39.1875 4.300781 37.992188 2.53125 36.160156 Z M 2.53125 32.597656 C 4.300781 34.429688 7.230469 35.625 10.546875 35.625 C 13.859375 35.625 16.789062 34.429688 18.5625 32.597656 L 18.5625 27.253906 C 16.789062 29.085938 13.859375 30.28125 10.546875 30.28125 C 7.230469 30.28125 4.300781 29.085938 2.53125 27.253906 Z M 2.53125 23.691406 C 4.300781 25.523438 7.230469 26.71875 10.546875 26.71875 C 13.859375 26.71875 16.789062 25.523438 18.5625 23.691406 L 18.5625 18.347656 C 16.789062 20.179688 13.859375 21.375 10.546875 21.375 C 7.230469 21.375 4.300781 20.179688 2.53125 18.347656 Z M 2.53125 23.691406 "/>
<path style=" stroke:none;fill-rule:nonzero;fill:rgb(38.823529%,33.72549%,75.294118%);fill-opacity:1;" d="M 60.585938 14.847656 L 61.84375 17.679688 C 62.527344 19.21875 61.8125 21.019531 60.257812 21.664062 L 55.238281 23.757812 C 54.066406 24.246094 52.839844 23.1875 53.148438 21.957031 C 53.828125 19.246094 55.230469 16.769531 57.207031 14.789062 L 57.6875 14.308594 C 58.574219 13.421875 60.078125 13.703125 60.585938 14.847656 Z M 60.585938 14.847656 "/>
<path style=" stroke:none;fill-rule:nonzero;fill:rgb(38.823529%,33.72549%,75.294118%);fill-opacity:1;" d="M 94.097656 16.628906 L 92.839844 19.460938 C 92.15625 21 92.871094 22.800781 94.425781 23.445312 L 99.445312 25.539062 C 100.613281 26.027344 101.84375 24.96875 101.535156 23.738281 C 100.855469 21.027344 99.453125 18.550781 97.476562 16.570312 L 96.996094 16.089844 C 96.109375 15.203125 94.605469 15.484375 94.097656 16.628906 Z M 94.097656 16.628906 "/>
<path style=" stroke:none;fill-rule:nonzero;fill:rgb(38.823529%,33.72549%,75.294118%);fill-opacity:1;" d="M 23.902344 48.09375 L 29.246094 48.09375 L 29.246094 63.234375 C 29.246094 64.710938 28.050781 65.90625 26.574219 65.90625 C 25.101562 65.90625 23.902344 64.710938 23.902344 63.234375 Z M 23.902344 48.09375 "/>
<path style=" stroke:none;fill-rule:nonzero;fill:rgb(38.823529%,33.72549%,75.294118%);fill-opacity:1;" d="M 32.808594 48.09375 L 38.152344 48.09375 L 38.152344 63.234375 C 38.152344 64.710938 36.957031 65.90625 35.480469 65.90625 C 34.007812 65.90625 32.808594 64.710938 32.808594 63.234375 Z M 32.808594 48.09375 "/>
<path style=" stroke:none;fill-rule:nonzero;fill:rgb(38.823529%,33.72549%,75.294118%);fill-opacity:1;" d="M 84.464844 69.46875 C 84.464844 69.46875 70.214844 71.25 60.417969 65.90625 C 60.417969 65.90625 62.808594 81.722656 80.773438 81.9375 Z M 84.464844 69.46875 "/>
<path style=" stroke:none;fill-rule:nonzero;fill:rgb(38.823529%,33.72549%,75.294118%);fill-opacity:1;" d="M 78.886719 88.261719 L 75.464844 99.800781 C 74.328125 102.992188 69.796875 102.949219 68.726562 99.734375 L 67.621094 96.417969 C 67.46875 95.960938 67.046875 95.765625 66.652344 95.816406 L 67.097656 92.882812 C 67.097656 92.882812 73.777344 93.515625 78.886719 88.261719 Z M 78.886719 88.261719 "/>
</g>
</defs>
<g id="surface1">
<path style=" stroke:none;fill-rule:evenodd;fill:rgb(98.039216%,69.411765%,16.862745%);fill-opacity:1;" d="M 528.269531 87.953125 L 520.097656 87.953125 L 520.097656 23.410156 L 528.269531 21.21875 Z M 609.113281 22.535156 L 600.613281 22.535156 L 600.613281 32.285156 L 609.113281 32.285156 Z M 393.929688 24.617188 L 364.078125 24.617188 L 364.078125 88.175781 L 372.683594 88.175781 L 372.683594 62.96875 L 391.097656 62.96875 C 400.140625 62.96875 407.550781 55.519531 407.550781 46.421875 L 407.550781 38.3125 C 407.441406 30.753906 401.449219 24.617188 393.929688 24.617188 Z M 398.941406 46.53125 C 398.941406 52.011719 394.585938 56.394531 389.136719 56.394531 L 372.683594 56.394531 L 372.683594 31.191406 L 391.316406 31.191406 C 395.566406 31.191406 398.941406 34.585938 398.941406 38.859375 Z M 432.9375 39.410156 L 426.945312 39.410156 C 418.554688 39.410156 411.691406 46.3125 411.691406 54.75 L 411.691406 73.269531 C 411.691406 81.707031 416.15625 88.832031 427.488281 89.050781 C 427.488281 89.050781 436.207031 88.941406 437.183594 88.832031 C 440.019531 88.503906 444.160156 87.40625 446.882812 86.53125 L 446.664062 81.707031 C 438.820312 83.679688 429.015625 82.804688 429.015625 82.804688 C 422.257812 82.804688 419.753906 78.640625 419.753906 74.148438 L 419.753906 67.242188 L 448.1875 67.242188 L 448.1875 54.75 C 448.1875 46.3125 441.324219 39.410156 432.9375 39.410156 Z M 439.90625 61.324219 L 419.644531 61.324219 L 419.644531 53.65625 C 419.644531 49.492188 424.003906 46.203125 428.140625 46.203125 L 431.628906 46.203125 C 435.769531 46.203125 439.90625 49.601562 439.90625 53.65625 Z M 459.085938 30.3125 L 467.148438 28.890625 L 467.148438 40.941406 L 480.984375 40.941406 L 479.023438 47.519531 L 467.148438 47.519531 L 467.148438 76.886719 C 467.148438 78.53125 467.257812 79.734375 467.476562 80.613281 C 467.691406 81.488281 468.128906 82.035156 468.890625 82.367188 C 469.652344 82.695312 470.742188 82.804688 472.15625 82.804688 C 472.527344 82.804688 472.921875 82.777344 473.328125 82.753906 L 473.332031 82.753906 C 473.765625 82.722656 474.214844 82.695312 474.664062 82.695312 C 475.117188 82.695312 475.566406 82.664062 476 82.636719 C 476.410156 82.609375 476.800781 82.585938 477.171875 82.585938 C 477.503906 82.535156 477.820312 82.511719 478.101562 82.484375 C 478.464844 82.453125 478.777344 82.425781 479.023438 82.367188 L 479.023438 87.84375 C 478.703125 88.003906 478.269531 88.105469 477.71875 88.234375 C 477.511719 88.285156 477.296875 88.335938 477.0625 88.394531 C 476.699219 88.4375 476.320312 88.503906 475.917969 88.570312 C 475.355469 88.664062 474.757812 88.765625 474.121094 88.832031 C 473.03125 88.941406 471.832031 89.050781 470.632812 89.050781 C 467.691406 89.160156 465.511719 88.722656 463.769531 88.0625 C 462.136719 87.40625 460.9375 86.203125 460.171875 84.449219 C 459.410156 82.695312 459.085938 80.285156 459.085938 77.214844 L 459.085938 47.519531 L 450.148438 47.519531 L 450.148438 40.941406 L 459.085938 40.941406 Z M 589.390625 44.011719 C 588.519531 42.695312 587.214844 41.601562 585.578125 40.945312 C 583.835938 40.285156 581.65625 39.847656 578.824219 39.847656 C 577.933594 39.847656 576.773438 39.9375 575.503906 40.035156 L 575.117188 40.066406 C 571.851562 40.394531 568.691406 41.492188 565.855469 43.136719 L 562.15625 45.328125 L 562.15625 41.164062 L 554.636719 41.164062 L 554.636719 88.0625 L 562.808594 88.0625 L 562.808594 53.328125 C 562.808594 52.941406 562.835938 52.667969 562.863281 52.394531 C 562.890625 52.121094 562.917969 51.847656 562.917969 51.464844 C 563.417969 51.1875 564 50.835938 564.597656 50.46875 L 564.601562 50.46875 C 565.429688 49.960938 566.296875 49.433594 567.058594 49.050781 C 568.363281 48.503906 569.671875 47.957031 570.976562 47.628906 C 572.285156 47.300781 575.773438 47.082031 576.972656 47.082031 C 578.714844 47.082031 580.132812 47.300781 581.003906 47.847656 C 581.980469 48.394531 582.527344 49.273438 582.964844 50.476562 C 583.289062 51.792969 583.507812 53.546875 583.402344 55.738281 L 583.402344 88.0625 L 591.570312 88.0625 L 591.570312 55.519531 C 591.570312 53.105469 591.460938 50.914062 591.136719 48.941406 C 590.808594 47.082031 590.152344 45.4375 589.390625 44.011719 Z M 600.722656 40.945312 L 608.894531 40.945312 L 608.894531 87.953125 L 600.722656 87.953125 Z M 537.640625 40.945312 L 545.8125 40.945312 L 545.8125 87.953125 L 537.640625 87.953125 Z M 546.03125 22.535156 L 537.53125 22.535156 L 537.53125 32.285156 L 546.03125 32.285156 Z M 498.851562 39.957031 C 490.464844 39.957031 483.601562 46.3125 483.601562 54.75 L 483.601562 73.269531 C 483.601562 81.707031 488.066406 88.832031 499.398438 89.050781 C 499.398438 89.050781 508.113281 88.941406 509.09375 88.832031 C 510.621094 88.613281 512.578125 88.175781 514.542969 87.734375 L 514.542969 81.816406 C 508.003906 83.023438 500.8125 82.804688 500.8125 82.804688 C 494.058594 82.804688 491.554688 78.640625 491.554688 74.148438 L 491.554688 53.765625 C 491.554688 49.601562 495.910156 46.859375 500.050781 46.859375 L 504.847656 46.640625 C 508.984375 46.640625 514.648438 47.847656 514.648438 47.847656 L 514.648438 41.492188 C 514.648438 41.492188 511.164062 40.175781 504.953125 40.175781 L 498.851562 40.175781 Z M 624.039062 61.433594 L 624.039062 67.132812 L 624.148438 67.132812 L 624.148438 74.257812 C 624.148438 78.75 626.65625 82.914062 633.40625 82.914062 C 633.40625 82.914062 640.597656 83.132812 647.136719 81.925781 L 647.136719 87.84375 C 645.175781 88.285156 643.214844 88.722656 641.691406 88.941406 C 640.710938 89.050781 631.992188 89.160156 631.992188 89.160156 C 620.660156 88.941406 616.195312 81.816406 616.195312 73.378906 L 616.195312 54.859375 C 616.195312 46.421875 623.058594 40.066406 631.449219 40.066406 L 637.441406 40.066406 C 643.648438 40.066406 647.136719 41.382812 647.136719 41.382812 L 647.136719 47.738281 C 647.136719 47.738281 641.472656 46.53125 637.332031 46.53125 L 632.539062 46.75 C 628.398438 46.75 624.039062 49.492188 624.039062 53.65625 Z M 624.039062 61.433594 "/>
<path style=" stroke:none;fill-rule:evenodd;fill:rgb(38.823529%,33.72549%,75.294118%);fill-opacity:1;" d="M 158.921875 23.738281 C 160.335938 23.847656 161.753906 23.957031 163.058594 24.066406 C 164.367188 24.285156 165.566406 24.394531 166.765625 24.507812 C 167.855469 24.726562 168.726562 24.945312 169.488281 25.164062 L 169.488281 36.558594 C 169.117188 36.496094 168.640625 36.472656 168.078125 36.4375 C 167.652344 36.414062 167.171875 36.386719 166.65625 36.339844 C 166.03125 36.285156 165.402344 36.257812 164.746094 36.226562 C 164.144531 36.203125 163.519531 36.175781 162.84375 36.121094 C 162.1875 36.121094 161.535156 36.09375 160.882812 36.066406 C 160.226562 36.039062 159.574219 36.011719 158.921875 36.011719 C 157.613281 35.902344 156.523438 35.902344 155.542969 35.902344 C 153.910156 35.902344 152.382812 35.902344 150.96875 36.011719 C 149.660156 36.121094 148.351562 36.449219 147.371094 36.890625 C 146.28125 37.328125 145.410156 38.09375 144.757812 39.082031 C 144.101562 40.066406 143.558594 41.492188 143.230469 43.246094 C 142.90625 44.996094 142.6875 47.191406 142.6875 49.929688 L 142.6875 62.96875 C 142.6875 65.710938 142.90625 67.902344 143.230469 69.65625 C 143.558594 71.40625 144.101562 72.832031 144.757812 73.820312 C 145.519531 74.804688 146.28125 75.570312 147.371094 76.011719 C 148.351562 76.449219 149.550781 76.777344 150.96875 76.886719 C 152.273438 76.996094 153.800781 76.996094 155.542969 76.996094 C 157.324219 76.996094 159.285156 76.90625 161.425781 76.808594 L 162.082031 76.777344 C 163.332031 76.65625 164.652344 76.570312 166.015625 76.480469 L 166.019531 76.480469 C 167.144531 76.40625 168.304688 76.328125 169.488281 76.230469 L 169.488281 87.734375 C 168.726562 87.953125 167.855469 88.175781 166.765625 88.394531 C 166.300781 88.441406 165.800781 88.503906 165.277344 88.574219 C 164.566406 88.667969 163.8125 88.769531 163.058594 88.832031 C 162.179688 88.980469 161.253906 89.027344 160.308594 89.078125 C 159.847656 89.101562 159.382812 89.125 158.921875 89.160156 C 157.503906 89.269531 156.085938 89.269531 154.671875 89.269531 C 151.183594 89.269531 148.023438 89.050781 145.082031 88.613281 C 142.25 88.175781 139.636719 87.296875 137.347656 86.203125 C 135.058594 84.996094 133.097656 83.460938 131.574219 81.488281 C 129.9375 79.515625 128.742188 76.996094 127.976562 73.929688 C 127.214844 70.859375 126.78125 67.242188 126.78125 62.96875 L 126.78125 49.929688 C 126.78125 45.65625 127.214844 42.039062 127.976562 38.972656 C 128.847656 35.902344 130.046875 33.382812 131.574219 31.410156 C 133.207031 29.328125 135.058594 27.792969 137.347656 26.699219 C 139.636719 25.601562 142.140625 24.726562 145.082031 24.285156 C 148.023438 23.847656 151.183594 23.628906 154.671875 23.628906 C 156.085938 23.628906 157.503906 23.628906 158.921875 23.738281 Z M 209.582031 71.957031 C 210.128906 70.3125 210.457031 68.011719 210.457031 65.160156 L 210.457031 24.726562 L 226.035156 24.726562 L 226.035156 65.378906 C 226.035156 69.875 225.382812 73.707031 224.292969 76.777344 C 223.203125 79.957031 221.460938 82.367188 219.28125 84.230469 C 217.101562 86.09375 214.378906 87.515625 211.109375 88.285156 C 207.839844 89.050781 204.136719 89.488281 199.886719 89.488281 C 195.636719 89.488281 191.933594 89.050781 188.664062 88.285156 C 185.503906 87.40625 182.671875 86.09375 180.492188 84.230469 C 178.3125 82.367188 176.679688 79.84375 175.480469 76.777344 C 174.28125 73.707031 173.738281 69.875 173.738281 65.378906 L 173.738281 24.726562 L 189.535156 24.726562 L 189.535156 65.160156 C 189.425781 68.011719 189.753906 70.203125 190.40625 71.957031 C 191.0625 73.707031 192.152344 74.914062 193.675781 75.679688 C 195.203125 76.449219 197.273438 76.777344 199.996094 76.777344 C 202.609375 76.777344 204.789062 76.449219 206.316406 75.679688 C 207.839844 74.914062 208.929688 73.707031 209.582031 71.957031 Z M 300.558594 24.726562 L 283.453125 88.175781 L 300.121094 88.175781 L 304.15625 72.832031 L 321.804688 72.832031 L 325.835938 88.175781 L 342.394531 88.175781 L 325.183594 24.726562 Z M 306.113281 61.324219 L 310.585938 43.792969 C 311.019531 42.039062 311.347656 40.285156 311.671875 38.53125 C 312 36.777344 312.328125 35.027344 312.542969 33.492188 L 312.871094 33.492188 C 313.195312 35.136719 313.523438 36.777344 313.851562 38.53125 C 314.179688 40.285156 314.613281 42.039062 315.050781 43.792969 L 319.519531 61.324219 Z M 274.738281 55.519531 C 276.808594 56.175781 278.332031 57.160156 279.421875 58.257812 C 280.511719 59.351562 281.273438 60.777344 281.820312 62.203125 C 282.253906 63.738281 282.363281 65.488281 282.363281 67.351562 L 282.363281 70.203125 C 282.363281 73.378906 281.929688 76.011719 281.273438 78.203125 C 280.621094 80.394531 279.53125 82.148438 278.113281 83.460938 C 276.699219 84.777344 274.847656 85.871094 272.777344 86.53125 C 270.597656 87.296875 268.089844 87.734375 265.257812 87.953125 C 262.425781 88.175781 259.15625 88.285156 255.5625 88.285156 L 231.917969 88.285156 L 231.917969 24.835938 L 256.214844 24.835938 C 259.265625 24.835938 262.097656 24.945312 264.714844 25.164062 C 267.328125 25.382812 269.617188 25.710938 271.6875 26.367188 C 273.757812 27.027344 275.5 27.902344 277.027344 29.109375 C 278.550781 30.3125 279.640625 31.847656 280.402344 33.820312 C 281.164062 35.792969 281.601562 38.203125 281.601562 41.164062 L 281.601562 43.246094 C 281.601562 44.996094 281.492188 46.640625 281.058594 48.175781 C 280.730469 49.710938 279.96875 51.132812 278.988281 52.339844 C 278.007812 53.65625 276.589844 54.640625 274.738281 55.519531 Z M 256.652344 35.792969 L 247.0625 35.792969 L 247.0625 51.023438 L 256.542969 51.023438 C 258.613281 51.023438 260.246094 50.914062 261.554688 50.585938 C 262.863281 50.257812 263.84375 49.820312 264.605469 49.273438 C 265.367188 48.722656 265.804688 47.957031 266.128906 47.078125 C 266.457031 46.203125 266.566406 45.105469 266.566406 43.902344 L 266.566406 41.820312 C 266.675781 40.722656 266.457031 39.738281 266.238281 38.972656 C 266.019531 38.203125 265.476562 37.546875 264.824219 37.109375 C 264.058594 36.667969 263.078125 36.339844 261.773438 36.121094 C 260.464844 35.902344 258.722656 35.792969 256.652344 35.792969 Z M 265.804688 74.695312 C 266.457031 73.597656 266.785156 72.175781 266.785156 70.203125 L 266.785156 67.242188 C 266.785156 65.378906 266.566406 63.957031 265.914062 62.96875 C 265.257812 61.984375 264.277344 61.324219 262.753906 60.886719 C 261.226562 60.558594 259.15625 60.339844 256.542969 60.339844 L 247.171875 60.339844 L 247.171875 77.433594 L 256.214844 77.433594 C 258.832031 77.433594 260.902344 77.214844 262.425781 76.886719 C 263.953125 76.449219 265.148438 75.679688 265.804688 74.695312 Z M 265.804688 74.695312 "/>
<path style=" stroke:none;fill-rule:nonzero;fill:rgb(98.039216%,69.411765%,16.862745%);fill-opacity:1;" d="M 113.484375 77.285156 L 95.78125 11.195312 C 94.746094 7.328125 92.214844 4.03125 88.75 2.027344 C 85.28125 0.0234375 81.160156 -0.523438 77.292969 0.511719 L 11.199219 18.230469 C 7.328125 19.265625 4.03125 21.796875 2.027344 25.261719 C 0.0234375 28.726562 -0.523438 32.847656 0.511719 36.714844 L 18.214844 102.804688 C 19.25 106.671875 21.78125 109.96875 25.246094 111.972656 C 28.714844 113.976562 32.835938 114.523438 36.703125 113.488281 L 102.796875 95.785156 C 104.714844 95.273438 106.511719 94.390625 108.085938 93.179688 C 109.660156 91.972656 110.984375 90.46875 111.976562 88.75 C 112.96875 87.03125 113.613281 85.132812 113.871094 83.167969 C 114.128906 81.199219 114 79.199219 113.484375 77.285156 Z M 113.484375 77.285156 "/>
<path style="fill-rule:nonzero;fill:rgb(100%,100%,100%);fill-opacity:1;stroke-width:1.2;stroke-linecap:butt;stroke-linejoin:miter;stroke:rgb(38.823529%,33.72549%,75.294118%);stroke-opacity:1;stroke-miterlimit:4;" d="M 15.9375 9.578125 C 16.166667 6.492188 17.626302 2.96875 19.545573 2.96875 C 21.071615 2.96875 21.726562 4.904948 22.00651 6.566406 C 23.153646 6.339844 24.333333 6.234375 25.483073 6.234375 C 26.825521 6.234375 28.21875 6.505208 29.53125 7.003906 C 29.798177 5.313802 30.445312 3.265625 32.014323 3.265625 C 34.529948 3.265625 36.170573 9.203125 35.459635 12.5 C 35.459635 12.5 35.873698 13.359375 35.873698 14.84375 C 35.873698 18.109375 33.201823 22.5625 28.154948 23.15625 L 25.153646 33.266927 C 24.776042 34.330729 23.265625 34.316406 22.908854 33.244792 L 22.540365 32.139323 C 22.446615 31.856771 22.042969 31.872396 21.970052 32.161458 L 21.717448 33.173177 C 21.425781 34.341146 19.666667 34.352865 19.266927 33.265625 L 18.46224 31.083333 C 18.457031 31.06901 18.450521 31.05599 18.44401 31.042969 C 16.996094 31.498698 15.438802 31.485677 13.996094 31.003906 L 13.96224 30.992188 C 13.768229 30.928385 13.558594 31.035156 13.496094 31.230469 L 12.84375 33.298177 C 12.505208 34.367188 11.010417 34.415365 10.604167 33.371094 L 10.026042 31.882812 C 9.927083 31.63151 9.570312 31.63151 9.472656 31.882812 L 8.846354 33.49349 C 8.445312 34.52474 6.976562 34.494792 6.617188 33.449219 L 3.811198 27.015625 C 2.821615 26.026042 0.842448 22.859375 0.842448 18.109375 C 0.842448 18.096354 0.842448 18.083333 0.842448 18.070312 C 0.842448 18.058594 0.842448 18.046875 0.842448 18.035156 C 0.842448 17.980469 0.84375 17.925781 0.84375 17.872396 C 0.84375 17.851562 0.842448 17.832031 0.842448 17.8125 L 0.842448 5.9375 C 0.842448 4.46224 2.039062 3.265625 3.514323 3.265625 C 4.990885 3.265625 6.186198 4.46224 6.186198 5.9375 L 6.186198 13.65625 C 6.186198 15.4375 6.779948 16.03125 7.967448 16.03125 L 13.014323 16.03125 C 13.608073 16.03125 13.90625 15.473958 13.904948 14.860677 L 13.904948 14.84375 C 13.904948 12.619792 14.686198 10.886719 15.9375 9.578125 Z M 15.9375 9.578125 " transform="matrix(3,0,0,3,0,0)"/>
<path style=" stroke:none;fill-rule:nonzero;fill:rgb(38.823529%,33.72549%,75.294118%);fill-opacity:1;" d="M 76.449219 46.3125 C 73.777344 46.3125 64.871094 40.96875 64.871094 38.296875 C 64.871094 33.84375 71.996094 32.0625 76.449219 32.0625 C 80.902344 32.0625 88.027344 33.84375 88.027344 38.296875 C 88.027344 40.96875 79.121094 46.3125 76.449219 46.3125 Z M 76.449219 46.3125 "/>
<use xlink:href="#surface5" mask="url(#mask0)"/>
<path style=" stroke:none;fill-rule:nonzero;fill:rgb(38.823529%,33.72549%,75.294118%);fill-opacity:1;" d="M 76.449219 48.984375 C 77.339844 52.546875 80.011719 53.4375 82.683594 53.4375 C 81.792969 54.328125 80.011719 56.109375 76.449219 56.109375 C 72.886719 56.113281 71.105469 54.328125 70.214844 53.4375 C 72.886719 53.4375 75.558594 52.546875 76.449219 48.984375 Z M 76.449219 48.984375 "/>
<path style="fill:none;stroke-width:1.2;stroke-linecap:round;stroke-linejoin:miter;stroke:rgb(38.823529%,33.72549%,75.294118%);stroke-opacity:1;stroke-miterlimit:4;" d="M 28.726562 23.161458 C 27.595052 23.27474 24.201823 23.976562 20.583333 21.940104 " transform="matrix(3,0,0,3,0,0)"/>
</g>
</svg>
